M48
; DRILL file {KiCad 9.0.0} date 2026-07-02T00:06:49+0530
; FORMAT={-:-/ absolute / metric / decimal}
; #@! TF.CreationDate,2026-07-02T00:06:49+05:30
; #@! TF.GenerationSoftware,Kicad,Pcbnew,9.0.0
; #@! TF.FileFunction,Plated,1,2,PTH
FMAT,2
METRIC
; #@! TA.AperFunction,Plated,PTH,ViaDrill
T1C0.300
; #@! TA.AperFunction,Plated,PTH,ComponentDrill
T2C0.800
; #@! TA.AperFunction,Plated,PTH,ComponentDrill
T3C0.900
; #@! TA.AperFunction,Plated,PTH,ComponentDrill
T4C1.000
; #@! TA.AperFunction,Plated,PTH,ComponentDrill
T5C1.020
; #@! TA.AperFunction,Plated,PTH,ComponentDrill
T6C1.200
; #@! TA.AperFunction,Plated,PTH,ComponentDrill
T7C1.500
%
G90
G05
T1
X121.5Y-120.875
X122.0Y-109.625
X127.9Y-101.516
X128.398Y-83.898
X129.023Y-83.273
X129.898Y-82.398
X131.398Y-80.898
X131.875Y-107.5
X132.023Y-80.273
X132.5Y-123.0
X132.898Y-79.398
X134.398Y-77.898
X135.648Y-76.648
X137.105Y-103.5
X142.0Y-134.5
T2
X171.6Y-116.61
X171.6Y-123.055
X171.6Y-129.5
X173.6Y-116.61
X173.6Y-123.055
X173.6Y-129.5
X175.6Y-116.61
X175.6Y-123.055
X175.6Y-129.5
X179.38Y-68.0
X179.38Y-75.5
X179.38Y-83.0
X179.38Y-91.0
X184.0Y-108.5
X184.0Y-114.0
X184.0Y-120.5
X184.0Y-126.0
X187.0Y-68.0
X187.0Y-75.5
X187.0Y-83.0
X187.0Y-91.0
X191.62Y-108.5
X191.62Y-114.0
X191.62Y-120.5
X191.62Y-126.0
T3
X170.96Y-68.09
X170.96Y-75.56
X170.96Y-83.03
X170.96Y-90.5
X173.5Y-68.09
X173.5Y-75.56
X173.5Y-83.03
X173.5Y-90.5
T4
X118.5Y-121.5
X118.5Y-124.04
X118.5Y-126.58
X119.0Y-109.0
X119.0Y-111.54
X119.0Y-114.08
X121.4Y-92.88
X121.4Y-95.42
X121.4Y-97.96
X121.4Y-100.5
X126.0Y-67.0
X126.0Y-69.54
X126.0Y-72.08
X126.0Y-74.62
X126.0Y-77.16
X126.0Y-79.7
X126.0Y-82.24
X126.0Y-84.78
X126.0Y-92.88
X126.0Y-95.42
X126.0Y-97.96
X126.0Y-100.5
X128.5Y-109.0
X128.5Y-111.54
X128.5Y-114.08
X129.0Y-122.0
X129.0Y-124.54
X129.0Y-127.08
T5
X138.821Y-70.95
X138.821Y-73.49
X138.821Y-76.03
X138.821Y-78.57
X138.821Y-81.11
X138.821Y-83.65
X138.821Y-86.19
X138.821Y-88.73
X138.821Y-91.27
X138.821Y-93.81
X138.821Y-96.35
X138.821Y-98.89
X138.821Y-101.43
X138.821Y-103.97
X138.821Y-106.51
X138.821Y-109.05
X138.821Y-111.59
X138.821Y-114.13
X138.821Y-116.67
X138.821Y-119.21
X138.821Y-121.75
X138.821Y-124.29
X161.681Y-70.95
X161.681Y-73.49
X161.681Y-76.03
X161.681Y-78.57
X161.681Y-81.11
X161.681Y-83.65
X161.681Y-86.19
X161.681Y-88.73
X161.681Y-91.27
X161.681Y-93.81
X161.681Y-96.35
X161.681Y-98.89
X161.681Y-101.43
X161.681Y-103.97
X161.681Y-106.51
X161.681Y-109.05
X161.681Y-111.59
X161.681Y-114.13
X161.681Y-116.67
X161.681Y-119.21
X161.681Y-121.75
X161.681Y-124.29
T6
X114.25Y-68.668
X117.75Y-68.668
X171.0Y-103.0
X174.5Y-103.0
T7
X169.5Y-116.61
X169.5Y-123.055
X169.5Y-129.5
X177.7Y-116.61
X177.7Y-123.055
X177.7Y-129.5
M30
