%TF.GenerationSoftware,KiCad,Pcbnew,9.0.0*%
%TF.CreationDate,2026-07-02T00:06:35+05:30*%
%TF.ProjectId,Project Kratos- W2 Q2 -ESP32-S3 Devkit Breakout Board,50726f6a-6563-4742-904b-7261746f732d,rev?*%
%TF.SameCoordinates,Original*%
%TF.FileFunction,Soldermask,Bot*%
%TF.FilePolarity,Negative*%
%FSLAX46Y46*%
G04 Gerber Fmt 4.6, Leading zero omitted, Abs format (unit mm)*
G04 Created by KiCad (PCBNEW 9.0.0) date 2026-07-02 00:06:35*
%MOMM*%
%LPD*%
G01*
G04 APERTURE LIST*
G04 Aperture macros list*
%AMRoundRect*
0 Rectangle with rounded corners*
0 $1 Rounding radius*
0 $2 $3 $4 $5 $6 $7 $8 $9 X,Y pos of 4 corners*
0 Add a 4 corners polygon primitive as box body*
4,1,4,$2,$3,$4,$5,$6,$7,$8,$9,$2,$3,0*
0 Add four circle primitives for the rounded corners*
1,1,$1+$1,$2,$3*
1,1,$1+$1,$4,$5*
1,1,$1+$1,$6,$7*
1,1,$1+$1,$8,$9*
0 Add four rect primitives between the rounded corners*
20,1,$1+$1,$2,$3,$4,$5,0*
20,1,$1+$1,$4,$5,$6,$7,0*
20,1,$1+$1,$6,$7,$8,$9,0*
20,1,$1+$1,$8,$9,$2,$3,0*%
G04 Aperture macros list end*
%ADD10R,1.700000X1.700000*%
%ADD11O,1.700000X1.700000*%
%ADD12RoundRect,0.250001X-0.949999X-0.949999X0.949999X-0.949999X0.949999X0.949999X-0.949999X0.949999X0*%
%ADD13C,2.400000*%
%ADD14O,2.200000X3.500000*%
%ADD15R,1.500000X2.500000*%
%ADD16O,1.500000X2.500000*%
%ADD17R,1.530000X1.530000*%
%ADD18C,1.530000*%
%ADD19C,1.600000*%
%ADD20O,1.600000X1.600000*%
%ADD21R,1.800000X1.800000*%
%ADD22C,1.800000*%
G04 APERTURE END LIST*
D10*
%TO.C,J7*%
X118500000Y-121500000D03*
D11*
X118500000Y-124040000D03*
X118500000Y-126580000D03*
%TD*%
D12*
%TO.C,J1*%
X114250000Y-68667500D03*
D13*
X117750000Y-68667500D03*
%TD*%
D10*
%TO.C,J2*%
X121400000Y-92880000D03*
D11*
X121400000Y-95420000D03*
X121400000Y-97960000D03*
X121400000Y-100500000D03*
%TD*%
D14*
%TO.C,SW3*%
X169500000Y-129500000D03*
X177700000Y-129500000D03*
D15*
X171600000Y-129500000D03*
D16*
X173600000Y-129500000D03*
X175600000Y-129500000D03*
%TD*%
D17*
%TO.C,U1*%
X138821000Y-70950000D03*
D18*
X138821000Y-73490000D03*
X138821000Y-76030000D03*
X138821000Y-78570000D03*
X138821000Y-81110000D03*
X138821000Y-83650000D03*
X138821000Y-86190000D03*
X138821000Y-88730000D03*
X138821000Y-91270000D03*
X138821000Y-93810000D03*
X138821000Y-96350000D03*
X138821000Y-98890000D03*
X138821000Y-101430000D03*
X138821000Y-103970000D03*
X138821000Y-106510000D03*
X138821000Y-109050000D03*
X138821000Y-111590000D03*
X138821000Y-114130000D03*
X138821000Y-116670000D03*
X138821000Y-119210000D03*
X138821000Y-121750000D03*
X138821000Y-124290000D03*
X161681000Y-70950000D03*
X161681000Y-73490000D03*
X161681000Y-76030000D03*
X161681000Y-78570000D03*
X161681000Y-81110000D03*
X161681000Y-83650000D03*
X161681000Y-86190000D03*
X161681000Y-88730000D03*
X161681000Y-91270000D03*
X161681000Y-93810000D03*
X161681000Y-96350000D03*
X161681000Y-98890000D03*
X161681000Y-101430000D03*
X161681000Y-103970000D03*
X161681000Y-106510000D03*
X161681000Y-109050000D03*
X161681000Y-111590000D03*
X161681000Y-114130000D03*
X161681000Y-116670000D03*
X161681000Y-119210000D03*
X161681000Y-121750000D03*
X161681000Y-124290000D03*
%TD*%
D19*
%TO.C,R4*%
X179380000Y-91000000D03*
D20*
X187000000Y-91000000D03*
%TD*%
D14*
%TO.C,SW1*%
X169500000Y-116610000D03*
X177700000Y-116610000D03*
D15*
X171600000Y-116610000D03*
D16*
X173600000Y-116610000D03*
X175600000Y-116610000D03*
%TD*%
D10*
%TO.C,J3*%
X126000000Y-92880000D03*
D11*
X126000000Y-95420000D03*
X126000000Y-97960000D03*
X126000000Y-100500000D03*
%TD*%
D19*
%TO.C,R3*%
X179380000Y-83000000D03*
D20*
X187000000Y-83000000D03*
%TD*%
D19*
%TO.C,R1*%
X179380000Y-68000000D03*
D20*
X187000000Y-68000000D03*
%TD*%
D19*
%TO.C,R6*%
X184000000Y-114000000D03*
D20*
X191620000Y-114000000D03*
%TD*%
D14*
%TO.C,SW2*%
X169500000Y-123055000D03*
X177700000Y-123055000D03*
D15*
X171600000Y-123055000D03*
D16*
X173600000Y-123055000D03*
X175600000Y-123055000D03*
%TD*%
D19*
%TO.C,R2*%
X179380000Y-75500000D03*
D20*
X187000000Y-75500000D03*
%TD*%
D21*
%TO.C,D3*%
X170960000Y-83030000D03*
D22*
X173500000Y-83030000D03*
%TD*%
D21*
%TO.C,D2*%
X170960000Y-75560000D03*
D22*
X173500000Y-75560000D03*
%TD*%
D19*
%TO.C,R8*%
X184000000Y-126000000D03*
D20*
X191620000Y-126000000D03*
%TD*%
D21*
%TO.C,D1*%
X170960000Y-68090000D03*
D22*
X173500000Y-68090000D03*
%TD*%
D12*
%TO.C,J4*%
X171000000Y-103000000D03*
D13*
X174500000Y-103000000D03*
%TD*%
D19*
%TO.C,R7*%
X184000000Y-120500000D03*
D20*
X191620000Y-120500000D03*
%TD*%
D21*
%TO.C,D4*%
X170960000Y-90500000D03*
D22*
X173500000Y-90500000D03*
%TD*%
D19*
%TO.C,R5*%
X184000000Y-108500000D03*
D20*
X191620000Y-108500000D03*
%TD*%
D10*
%TO.C,J9*%
X126000000Y-67000000D03*
D11*
X126000000Y-69540000D03*
X126000000Y-72080000D03*
X126000000Y-74620000D03*
X126000000Y-77160000D03*
X126000000Y-79700000D03*
X126000000Y-82240000D03*
X126000000Y-84780000D03*
%TD*%
D10*
%TO.C,J8*%
X129000000Y-122000000D03*
D11*
X129000000Y-124540000D03*
X129000000Y-127080000D03*
%TD*%
D10*
%TO.C,J5*%
X119000000Y-109000000D03*
D11*
X119000000Y-111540000D03*
X119000000Y-114080000D03*
%TD*%
D10*
%TO.C,J6*%
X128500000Y-109000000D03*
D11*
X128500000Y-111540000D03*
X128500000Y-114080000D03*
%TD*%
M02*
