%TF.GenerationSoftware,KiCad,Pcbnew,9.0.0*%
%TF.CreationDate,2026-07-02T00:06:35+05:30*%
%TF.ProjectId,Project Kratos- W2 Q2 -ESP32-S3 Devkit Breakout Board,50726f6a-6563-4742-904b-7261746f732d,rev?*%
%TF.SameCoordinates,Original*%
%TF.FileFunction,Legend,Top*%
%TF.FilePolarity,Positive*%
%FSLAX46Y46*%
G04 Gerber Fmt 4.6, Leading zero omitted, Abs format (unit mm)*
G04 Created by KiCad (PCBNEW 9.0.0) date 2026-07-02 00:06:35*
%MOMM*%
%LPD*%
G01*
G04 APERTURE LIST*
%ADD10C,0.120000*%
%ADD11C,0.150000*%
%ADD12C,0.000000*%
%ADD13C,0.127000*%
%ADD14C,0.200000*%
G04 APERTURE END LIST*
D10*
X152221804Y-74691760D02*
X152678947Y-74691760D01*
X153393232Y-74748902D02*
X153678947Y-74748902D01*
X153336089Y-74920331D02*
X153536089Y-74320331D01*
X153536089Y-74320331D02*
X153736089Y-74920331D01*
X153936090Y-74920331D02*
X153936090Y-74520331D01*
X153936090Y-74634617D02*
X153964661Y-74577474D01*
X153964661Y-74577474D02*
X153993233Y-74548902D01*
X153993233Y-74548902D02*
X154050375Y-74520331D01*
X154050375Y-74520331D02*
X154107518Y-74520331D01*
X154307519Y-74920331D02*
X154307519Y-74320331D01*
X154364662Y-74691760D02*
X154536090Y-74920331D01*
X154536090Y-74520331D02*
X154307519Y-74748902D01*
X155050376Y-74920331D02*
X155050376Y-74606045D01*
X155050376Y-74606045D02*
X155021804Y-74548902D01*
X155021804Y-74548902D02*
X154964661Y-74520331D01*
X154964661Y-74520331D02*
X154850376Y-74520331D01*
X154850376Y-74520331D02*
X154793233Y-74548902D01*
X155050376Y-74891760D02*
X154993233Y-74920331D01*
X154993233Y-74920331D02*
X154850376Y-74920331D01*
X154850376Y-74920331D02*
X154793233Y-74891760D01*
X154793233Y-74891760D02*
X154764661Y-74834617D01*
X154764661Y-74834617D02*
X154764661Y-74777474D01*
X154764661Y-74777474D02*
X154793233Y-74720331D01*
X154793233Y-74720331D02*
X154850376Y-74691760D01*
X154850376Y-74691760D02*
X154993233Y-74691760D01*
X154993233Y-74691760D02*
X155050376Y-74663188D01*
X155793233Y-74920331D02*
X155793233Y-74320331D01*
X155793233Y-74320331D02*
X155936090Y-74320331D01*
X155936090Y-74320331D02*
X156021804Y-74348902D01*
X156021804Y-74348902D02*
X156078947Y-74406045D01*
X156078947Y-74406045D02*
X156107518Y-74463188D01*
X156107518Y-74463188D02*
X156136090Y-74577474D01*
X156136090Y-74577474D02*
X156136090Y-74663188D01*
X156136090Y-74663188D02*
X156107518Y-74777474D01*
X156107518Y-74777474D02*
X156078947Y-74834617D01*
X156078947Y-74834617D02*
X156021804Y-74891760D01*
X156021804Y-74891760D02*
X155936090Y-74920331D01*
X155936090Y-74920331D02*
X155793233Y-74920331D01*
X156650376Y-74920331D02*
X156650376Y-74606045D01*
X156650376Y-74606045D02*
X156621804Y-74548902D01*
X156621804Y-74548902D02*
X156564661Y-74520331D01*
X156564661Y-74520331D02*
X156450376Y-74520331D01*
X156450376Y-74520331D02*
X156393233Y-74548902D01*
X156650376Y-74891760D02*
X156593233Y-74920331D01*
X156593233Y-74920331D02*
X156450376Y-74920331D01*
X156450376Y-74920331D02*
X156393233Y-74891760D01*
X156393233Y-74891760D02*
X156364661Y-74834617D01*
X156364661Y-74834617D02*
X156364661Y-74777474D01*
X156364661Y-74777474D02*
X156393233Y-74720331D01*
X156393233Y-74720331D02*
X156450376Y-74691760D01*
X156450376Y-74691760D02*
X156593233Y-74691760D01*
X156593233Y-74691760D02*
X156650376Y-74663188D01*
X156907518Y-74891760D02*
X156964661Y-74920331D01*
X156964661Y-74920331D02*
X157078947Y-74920331D01*
X157078947Y-74920331D02*
X157136090Y-74891760D01*
X157136090Y-74891760D02*
X157164661Y-74834617D01*
X157164661Y-74834617D02*
X157164661Y-74806045D01*
X157164661Y-74806045D02*
X157136090Y-74748902D01*
X157136090Y-74748902D02*
X157078947Y-74720331D01*
X157078947Y-74720331D02*
X156993233Y-74720331D01*
X156993233Y-74720331D02*
X156936090Y-74691760D01*
X156936090Y-74691760D02*
X156907518Y-74634617D01*
X156907518Y-74634617D02*
X156907518Y-74606045D01*
X156907518Y-74606045D02*
X156936090Y-74548902D01*
X156936090Y-74548902D02*
X156993233Y-74520331D01*
X156993233Y-74520331D02*
X157078947Y-74520331D01*
X157078947Y-74520331D02*
X157136090Y-74548902D01*
X157678947Y-74520331D02*
X157678947Y-75006045D01*
X157678947Y-75006045D02*
X157650375Y-75063188D01*
X157650375Y-75063188D02*
X157621804Y-75091760D01*
X157621804Y-75091760D02*
X157564661Y-75120331D01*
X157564661Y-75120331D02*
X157478947Y-75120331D01*
X157478947Y-75120331D02*
X157421804Y-75091760D01*
X157678947Y-74891760D02*
X157621804Y-74920331D01*
X157621804Y-74920331D02*
X157507518Y-74920331D01*
X157507518Y-74920331D02*
X157450375Y-74891760D01*
X157450375Y-74891760D02*
X157421804Y-74863188D01*
X157421804Y-74863188D02*
X157393232Y-74806045D01*
X157393232Y-74806045D02*
X157393232Y-74634617D01*
X157393232Y-74634617D02*
X157421804Y-74577474D01*
X157421804Y-74577474D02*
X157450375Y-74548902D01*
X157450375Y-74548902D02*
X157507518Y-74520331D01*
X157507518Y-74520331D02*
X157621804Y-74520331D01*
X157621804Y-74520331D02*
X157678947Y-74548902D01*
X158221804Y-74520331D02*
X158221804Y-74920331D01*
X157964661Y-74520331D02*
X157964661Y-74834617D01*
X157964661Y-74834617D02*
X157993232Y-74891760D01*
X157993232Y-74891760D02*
X158050375Y-74920331D01*
X158050375Y-74920331D02*
X158136089Y-74920331D01*
X158136089Y-74920331D02*
X158193232Y-74891760D01*
X158193232Y-74891760D02*
X158221804Y-74863188D01*
X158507518Y-74520331D02*
X158507518Y-75120331D01*
X158507518Y-74548902D02*
X158564661Y-74520331D01*
X158564661Y-74520331D02*
X158678946Y-74520331D01*
X158678946Y-74520331D02*
X158736089Y-74548902D01*
X158736089Y-74548902D02*
X158764661Y-74577474D01*
X158764661Y-74577474D02*
X158793232Y-74634617D01*
X158793232Y-74634617D02*
X158793232Y-74806045D01*
X158793232Y-74806045D02*
X158764661Y-74863188D01*
X158764661Y-74863188D02*
X158736089Y-74891760D01*
X158736089Y-74891760D02*
X158678946Y-74920331D01*
X158678946Y-74920331D02*
X158564661Y-74920331D01*
X158564661Y-74920331D02*
X158507518Y-74891760D01*
X158964660Y-74520331D02*
X159193232Y-74520331D01*
X159050375Y-74320331D02*
X159050375Y-74834617D01*
X159050375Y-74834617D02*
X159078946Y-74891760D01*
X159078946Y-74891760D02*
X159136089Y-74920331D01*
X159136089Y-74920331D02*
X159193232Y-74920331D01*
X159650375Y-74920331D02*
X159650375Y-74606045D01*
X159650375Y-74606045D02*
X159621803Y-74548902D01*
X159621803Y-74548902D02*
X159564660Y-74520331D01*
X159564660Y-74520331D02*
X159450375Y-74520331D01*
X159450375Y-74520331D02*
X159393232Y-74548902D01*
X159650375Y-74891760D02*
X159593232Y-74920331D01*
X159593232Y-74920331D02*
X159450375Y-74920331D01*
X159450375Y-74920331D02*
X159393232Y-74891760D01*
X159393232Y-74891760D02*
X159364660Y-74834617D01*
X159364660Y-74834617D02*
X159364660Y-74777474D01*
X159364660Y-74777474D02*
X159393232Y-74720331D01*
X159393232Y-74720331D02*
X159450375Y-74691760D01*
X159450375Y-74691760D02*
X159593232Y-74691760D01*
X159593232Y-74691760D02*
X159650375Y-74663188D01*
D11*
X118166666Y-118624819D02*
X118166666Y-119339104D01*
X118166666Y-119339104D02*
X118119047Y-119481961D01*
X118119047Y-119481961D02*
X118023809Y-119577200D01*
X118023809Y-119577200D02*
X117880952Y-119624819D01*
X117880952Y-119624819D02*
X117785714Y-119624819D01*
X118547619Y-118624819D02*
X119214285Y-118624819D01*
X119214285Y-118624819D02*
X118785714Y-119624819D01*
X115666666Y-63902319D02*
X115666666Y-64616604D01*
X115666666Y-64616604D02*
X115619047Y-64759461D01*
X115619047Y-64759461D02*
X115523809Y-64854700D01*
X115523809Y-64854700D02*
X115380952Y-64902319D01*
X115380952Y-64902319D02*
X115285714Y-64902319D01*
X116666666Y-64902319D02*
X116095238Y-64902319D01*
X116380952Y-64902319D02*
X116380952Y-63902319D01*
X116380952Y-63902319D02*
X116285714Y-64045176D01*
X116285714Y-64045176D02*
X116190476Y-64140414D01*
X116190476Y-64140414D02*
X116095238Y-64188033D01*
X121066666Y-89564819D02*
X121066666Y-90279104D01*
X121066666Y-90279104D02*
X121019047Y-90421961D01*
X121019047Y-90421961D02*
X120923809Y-90517200D01*
X120923809Y-90517200D02*
X120780952Y-90564819D01*
X120780952Y-90564819D02*
X120685714Y-90564819D01*
X121495238Y-89660057D02*
X121542857Y-89612438D01*
X121542857Y-89612438D02*
X121638095Y-89564819D01*
X121638095Y-89564819D02*
X121876190Y-89564819D01*
X121876190Y-89564819D02*
X121971428Y-89612438D01*
X121971428Y-89612438D02*
X122019047Y-89660057D01*
X122019047Y-89660057D02*
X122066666Y-89755295D01*
X122066666Y-89755295D02*
X122066666Y-89850533D01*
X122066666Y-89850533D02*
X122019047Y-89993390D01*
X122019047Y-89993390D02*
X121447619Y-90564819D01*
X121447619Y-90564819D02*
X122066666Y-90564819D01*
X174256667Y-126917200D02*
X174399524Y-126964819D01*
X174399524Y-126964819D02*
X174637619Y-126964819D01*
X174637619Y-126964819D02*
X174732857Y-126917200D01*
X174732857Y-126917200D02*
X174780476Y-126869580D01*
X174780476Y-126869580D02*
X174828095Y-126774342D01*
X174828095Y-126774342D02*
X174828095Y-126679104D01*
X174828095Y-126679104D02*
X174780476Y-126583866D01*
X174780476Y-126583866D02*
X174732857Y-126536247D01*
X174732857Y-126536247D02*
X174637619Y-126488628D01*
X174637619Y-126488628D02*
X174447143Y-126441009D01*
X174447143Y-126441009D02*
X174351905Y-126393390D01*
X174351905Y-126393390D02*
X174304286Y-126345771D01*
X174304286Y-126345771D02*
X174256667Y-126250533D01*
X174256667Y-126250533D02*
X174256667Y-126155295D01*
X174256667Y-126155295D02*
X174304286Y-126060057D01*
X174304286Y-126060057D02*
X174351905Y-126012438D01*
X174351905Y-126012438D02*
X174447143Y-125964819D01*
X174447143Y-125964819D02*
X174685238Y-125964819D01*
X174685238Y-125964819D02*
X174828095Y-126012438D01*
X175161429Y-125964819D02*
X175399524Y-126964819D01*
X175399524Y-126964819D02*
X175590000Y-126250533D01*
X175590000Y-126250533D02*
X175780476Y-126964819D01*
X175780476Y-126964819D02*
X176018572Y-125964819D01*
X176304286Y-125964819D02*
X176923333Y-125964819D01*
X176923333Y-125964819D02*
X176590000Y-126345771D01*
X176590000Y-126345771D02*
X176732857Y-126345771D01*
X176732857Y-126345771D02*
X176828095Y-126393390D01*
X176828095Y-126393390D02*
X176875714Y-126441009D01*
X176875714Y-126441009D02*
X176923333Y-126536247D01*
X176923333Y-126536247D02*
X176923333Y-126774342D01*
X176923333Y-126774342D02*
X176875714Y-126869580D01*
X176875714Y-126869580D02*
X176828095Y-126917200D01*
X176828095Y-126917200D02*
X176732857Y-126964819D01*
X176732857Y-126964819D02*
X176447143Y-126964819D01*
X176447143Y-126964819D02*
X176351905Y-126917200D01*
X176351905Y-126917200D02*
X176304286Y-126869580D01*
X139714095Y-60769819D02*
X139714095Y-61579342D01*
X139714095Y-61579342D02*
X139761714Y-61674580D01*
X139761714Y-61674580D02*
X139809333Y-61722200D01*
X139809333Y-61722200D02*
X139904571Y-61769819D01*
X139904571Y-61769819D02*
X140095047Y-61769819D01*
X140095047Y-61769819D02*
X140190285Y-61722200D01*
X140190285Y-61722200D02*
X140237904Y-61674580D01*
X140237904Y-61674580D02*
X140285523Y-61579342D01*
X140285523Y-61579342D02*
X140285523Y-60769819D01*
X141285523Y-61769819D02*
X140714095Y-61769819D01*
X140999809Y-61769819D02*
X140999809Y-60769819D01*
X140999809Y-60769819D02*
X140904571Y-60912676D01*
X140904571Y-60912676D02*
X140809333Y-61007914D01*
X140809333Y-61007914D02*
X140714095Y-61055533D01*
X183023333Y-89084819D02*
X182690000Y-88608628D01*
X182451905Y-89084819D02*
X182451905Y-88084819D01*
X182451905Y-88084819D02*
X182832857Y-88084819D01*
X182832857Y-88084819D02*
X182928095Y-88132438D01*
X182928095Y-88132438D02*
X182975714Y-88180057D01*
X182975714Y-88180057D02*
X183023333Y-88275295D01*
X183023333Y-88275295D02*
X183023333Y-88418152D01*
X183023333Y-88418152D02*
X182975714Y-88513390D01*
X182975714Y-88513390D02*
X182928095Y-88561009D01*
X182928095Y-88561009D02*
X182832857Y-88608628D01*
X182832857Y-88608628D02*
X182451905Y-88608628D01*
X183880476Y-88418152D02*
X183880476Y-89084819D01*
X183642381Y-88037200D02*
X183404286Y-88751485D01*
X183404286Y-88751485D02*
X184023333Y-88751485D01*
X174256667Y-114027200D02*
X174399524Y-114074819D01*
X174399524Y-114074819D02*
X174637619Y-114074819D01*
X174637619Y-114074819D02*
X174732857Y-114027200D01*
X174732857Y-114027200D02*
X174780476Y-113979580D01*
X174780476Y-113979580D02*
X174828095Y-113884342D01*
X174828095Y-113884342D02*
X174828095Y-113789104D01*
X174828095Y-113789104D02*
X174780476Y-113693866D01*
X174780476Y-113693866D02*
X174732857Y-113646247D01*
X174732857Y-113646247D02*
X174637619Y-113598628D01*
X174637619Y-113598628D02*
X174447143Y-113551009D01*
X174447143Y-113551009D02*
X174351905Y-113503390D01*
X174351905Y-113503390D02*
X174304286Y-113455771D01*
X174304286Y-113455771D02*
X174256667Y-113360533D01*
X174256667Y-113360533D02*
X174256667Y-113265295D01*
X174256667Y-113265295D02*
X174304286Y-113170057D01*
X174304286Y-113170057D02*
X174351905Y-113122438D01*
X174351905Y-113122438D02*
X174447143Y-113074819D01*
X174447143Y-113074819D02*
X174685238Y-113074819D01*
X174685238Y-113074819D02*
X174828095Y-113122438D01*
X175161429Y-113074819D02*
X175399524Y-114074819D01*
X175399524Y-114074819D02*
X175590000Y-113360533D01*
X175590000Y-113360533D02*
X175780476Y-114074819D01*
X175780476Y-114074819D02*
X176018572Y-113074819D01*
X176923333Y-114074819D02*
X176351905Y-114074819D01*
X176637619Y-114074819D02*
X176637619Y-113074819D01*
X176637619Y-113074819D02*
X176542381Y-113217676D01*
X176542381Y-113217676D02*
X176447143Y-113312914D01*
X176447143Y-113312914D02*
X176351905Y-113360533D01*
X125666666Y-89564819D02*
X125666666Y-90279104D01*
X125666666Y-90279104D02*
X125619047Y-90421961D01*
X125619047Y-90421961D02*
X125523809Y-90517200D01*
X125523809Y-90517200D02*
X125380952Y-90564819D01*
X125380952Y-90564819D02*
X125285714Y-90564819D01*
X126047619Y-89564819D02*
X126666666Y-89564819D01*
X126666666Y-89564819D02*
X126333333Y-89945771D01*
X126333333Y-89945771D02*
X126476190Y-89945771D01*
X126476190Y-89945771D02*
X126571428Y-89993390D01*
X126571428Y-89993390D02*
X126619047Y-90041009D01*
X126619047Y-90041009D02*
X126666666Y-90136247D01*
X126666666Y-90136247D02*
X126666666Y-90374342D01*
X126666666Y-90374342D02*
X126619047Y-90469580D01*
X126619047Y-90469580D02*
X126571428Y-90517200D01*
X126571428Y-90517200D02*
X126476190Y-90564819D01*
X126476190Y-90564819D02*
X126190476Y-90564819D01*
X126190476Y-90564819D02*
X126095238Y-90517200D01*
X126095238Y-90517200D02*
X126047619Y-90469580D01*
X183023333Y-81084819D02*
X182690000Y-80608628D01*
X182451905Y-81084819D02*
X182451905Y-80084819D01*
X182451905Y-80084819D02*
X182832857Y-80084819D01*
X182832857Y-80084819D02*
X182928095Y-80132438D01*
X182928095Y-80132438D02*
X182975714Y-80180057D01*
X182975714Y-80180057D02*
X183023333Y-80275295D01*
X183023333Y-80275295D02*
X183023333Y-80418152D01*
X183023333Y-80418152D02*
X182975714Y-80513390D01*
X182975714Y-80513390D02*
X182928095Y-80561009D01*
X182928095Y-80561009D02*
X182832857Y-80608628D01*
X182832857Y-80608628D02*
X182451905Y-80608628D01*
X183356667Y-80084819D02*
X183975714Y-80084819D01*
X183975714Y-80084819D02*
X183642381Y-80465771D01*
X183642381Y-80465771D02*
X183785238Y-80465771D01*
X183785238Y-80465771D02*
X183880476Y-80513390D01*
X183880476Y-80513390D02*
X183928095Y-80561009D01*
X183928095Y-80561009D02*
X183975714Y-80656247D01*
X183975714Y-80656247D02*
X183975714Y-80894342D01*
X183975714Y-80894342D02*
X183928095Y-80989580D01*
X183928095Y-80989580D02*
X183880476Y-81037200D01*
X183880476Y-81037200D02*
X183785238Y-81084819D01*
X183785238Y-81084819D02*
X183499524Y-81084819D01*
X183499524Y-81084819D02*
X183404286Y-81037200D01*
X183404286Y-81037200D02*
X183356667Y-80989580D01*
X183023333Y-66084819D02*
X182690000Y-65608628D01*
X182451905Y-66084819D02*
X182451905Y-65084819D01*
X182451905Y-65084819D02*
X182832857Y-65084819D01*
X182832857Y-65084819D02*
X182928095Y-65132438D01*
X182928095Y-65132438D02*
X182975714Y-65180057D01*
X182975714Y-65180057D02*
X183023333Y-65275295D01*
X183023333Y-65275295D02*
X183023333Y-65418152D01*
X183023333Y-65418152D02*
X182975714Y-65513390D01*
X182975714Y-65513390D02*
X182928095Y-65561009D01*
X182928095Y-65561009D02*
X182832857Y-65608628D01*
X182832857Y-65608628D02*
X182451905Y-65608628D01*
X183975714Y-66084819D02*
X183404286Y-66084819D01*
X183690000Y-66084819D02*
X183690000Y-65084819D01*
X183690000Y-65084819D02*
X183594762Y-65227676D01*
X183594762Y-65227676D02*
X183499524Y-65322914D01*
X183499524Y-65322914D02*
X183404286Y-65370533D01*
X187643333Y-112084819D02*
X187310000Y-111608628D01*
X187071905Y-112084819D02*
X187071905Y-111084819D01*
X187071905Y-111084819D02*
X187452857Y-111084819D01*
X187452857Y-111084819D02*
X187548095Y-111132438D01*
X187548095Y-111132438D02*
X187595714Y-111180057D01*
X187595714Y-111180057D02*
X187643333Y-111275295D01*
X187643333Y-111275295D02*
X187643333Y-111418152D01*
X187643333Y-111418152D02*
X187595714Y-111513390D01*
X187595714Y-111513390D02*
X187548095Y-111561009D01*
X187548095Y-111561009D02*
X187452857Y-111608628D01*
X187452857Y-111608628D02*
X187071905Y-111608628D01*
X188500476Y-111084819D02*
X188310000Y-111084819D01*
X188310000Y-111084819D02*
X188214762Y-111132438D01*
X188214762Y-111132438D02*
X188167143Y-111180057D01*
X188167143Y-111180057D02*
X188071905Y-111322914D01*
X188071905Y-111322914D02*
X188024286Y-111513390D01*
X188024286Y-111513390D02*
X188024286Y-111894342D01*
X188024286Y-111894342D02*
X188071905Y-111989580D01*
X188071905Y-111989580D02*
X188119524Y-112037200D01*
X188119524Y-112037200D02*
X188214762Y-112084819D01*
X188214762Y-112084819D02*
X188405238Y-112084819D01*
X188405238Y-112084819D02*
X188500476Y-112037200D01*
X188500476Y-112037200D02*
X188548095Y-111989580D01*
X188548095Y-111989580D02*
X188595714Y-111894342D01*
X188595714Y-111894342D02*
X188595714Y-111656247D01*
X188595714Y-111656247D02*
X188548095Y-111561009D01*
X188548095Y-111561009D02*
X188500476Y-111513390D01*
X188500476Y-111513390D02*
X188405238Y-111465771D01*
X188405238Y-111465771D02*
X188214762Y-111465771D01*
X188214762Y-111465771D02*
X188119524Y-111513390D01*
X188119524Y-111513390D02*
X188071905Y-111561009D01*
X188071905Y-111561009D02*
X188024286Y-111656247D01*
X174256667Y-120472200D02*
X174399524Y-120519819D01*
X174399524Y-120519819D02*
X174637619Y-120519819D01*
X174637619Y-120519819D02*
X174732857Y-120472200D01*
X174732857Y-120472200D02*
X174780476Y-120424580D01*
X174780476Y-120424580D02*
X174828095Y-120329342D01*
X174828095Y-120329342D02*
X174828095Y-120234104D01*
X174828095Y-120234104D02*
X174780476Y-120138866D01*
X174780476Y-120138866D02*
X174732857Y-120091247D01*
X174732857Y-120091247D02*
X174637619Y-120043628D01*
X174637619Y-120043628D02*
X174447143Y-119996009D01*
X174447143Y-119996009D02*
X174351905Y-119948390D01*
X174351905Y-119948390D02*
X174304286Y-119900771D01*
X174304286Y-119900771D02*
X174256667Y-119805533D01*
X174256667Y-119805533D02*
X174256667Y-119710295D01*
X174256667Y-119710295D02*
X174304286Y-119615057D01*
X174304286Y-119615057D02*
X174351905Y-119567438D01*
X174351905Y-119567438D02*
X174447143Y-119519819D01*
X174447143Y-119519819D02*
X174685238Y-119519819D01*
X174685238Y-119519819D02*
X174828095Y-119567438D01*
X175161429Y-119519819D02*
X175399524Y-120519819D01*
X175399524Y-120519819D02*
X175590000Y-119805533D01*
X175590000Y-119805533D02*
X175780476Y-120519819D01*
X175780476Y-120519819D02*
X176018572Y-119519819D01*
X176351905Y-119615057D02*
X176399524Y-119567438D01*
X176399524Y-119567438D02*
X176494762Y-119519819D01*
X176494762Y-119519819D02*
X176732857Y-119519819D01*
X176732857Y-119519819D02*
X176828095Y-119567438D01*
X176828095Y-119567438D02*
X176875714Y-119615057D01*
X176875714Y-119615057D02*
X176923333Y-119710295D01*
X176923333Y-119710295D02*
X176923333Y-119805533D01*
X176923333Y-119805533D02*
X176875714Y-119948390D01*
X176875714Y-119948390D02*
X176304286Y-120519819D01*
X176304286Y-120519819D02*
X176923333Y-120519819D01*
X183023333Y-73584819D02*
X182690000Y-73108628D01*
X182451905Y-73584819D02*
X182451905Y-72584819D01*
X182451905Y-72584819D02*
X182832857Y-72584819D01*
X182832857Y-72584819D02*
X182928095Y-72632438D01*
X182928095Y-72632438D02*
X182975714Y-72680057D01*
X182975714Y-72680057D02*
X183023333Y-72775295D01*
X183023333Y-72775295D02*
X183023333Y-72918152D01*
X183023333Y-72918152D02*
X182975714Y-73013390D01*
X182975714Y-73013390D02*
X182928095Y-73061009D01*
X182928095Y-73061009D02*
X182832857Y-73108628D01*
X182832857Y-73108628D02*
X182451905Y-73108628D01*
X183404286Y-72680057D02*
X183451905Y-72632438D01*
X183451905Y-72632438D02*
X183547143Y-72584819D01*
X183547143Y-72584819D02*
X183785238Y-72584819D01*
X183785238Y-72584819D02*
X183880476Y-72632438D01*
X183880476Y-72632438D02*
X183928095Y-72680057D01*
X183928095Y-72680057D02*
X183975714Y-72775295D01*
X183975714Y-72775295D02*
X183975714Y-72870533D01*
X183975714Y-72870533D02*
X183928095Y-73013390D01*
X183928095Y-73013390D02*
X183356667Y-73584819D01*
X183356667Y-73584819D02*
X183975714Y-73584819D01*
X166761905Y-79454819D02*
X166761905Y-78454819D01*
X166761905Y-78454819D02*
X167000000Y-78454819D01*
X167000000Y-78454819D02*
X167142857Y-78502438D01*
X167142857Y-78502438D02*
X167238095Y-78597676D01*
X167238095Y-78597676D02*
X167285714Y-78692914D01*
X167285714Y-78692914D02*
X167333333Y-78883390D01*
X167333333Y-78883390D02*
X167333333Y-79026247D01*
X167333333Y-79026247D02*
X167285714Y-79216723D01*
X167285714Y-79216723D02*
X167238095Y-79311961D01*
X167238095Y-79311961D02*
X167142857Y-79407200D01*
X167142857Y-79407200D02*
X167000000Y-79454819D01*
X167000000Y-79454819D02*
X166761905Y-79454819D01*
X167666667Y-78454819D02*
X168285714Y-78454819D01*
X168285714Y-78454819D02*
X167952381Y-78835771D01*
X167952381Y-78835771D02*
X168095238Y-78835771D01*
X168095238Y-78835771D02*
X168190476Y-78883390D01*
X168190476Y-78883390D02*
X168238095Y-78931009D01*
X168238095Y-78931009D02*
X168285714Y-79026247D01*
X168285714Y-79026247D02*
X168285714Y-79264342D01*
X168285714Y-79264342D02*
X168238095Y-79359580D01*
X168238095Y-79359580D02*
X168190476Y-79407200D01*
X168190476Y-79407200D02*
X168095238Y-79454819D01*
X168095238Y-79454819D02*
X167809524Y-79454819D01*
X167809524Y-79454819D02*
X167714286Y-79407200D01*
X167714286Y-79407200D02*
X167666667Y-79359580D01*
X167261905Y-71954819D02*
X167261905Y-70954819D01*
X167261905Y-70954819D02*
X167500000Y-70954819D01*
X167500000Y-70954819D02*
X167642857Y-71002438D01*
X167642857Y-71002438D02*
X167738095Y-71097676D01*
X167738095Y-71097676D02*
X167785714Y-71192914D01*
X167785714Y-71192914D02*
X167833333Y-71383390D01*
X167833333Y-71383390D02*
X167833333Y-71526247D01*
X167833333Y-71526247D02*
X167785714Y-71716723D01*
X167785714Y-71716723D02*
X167738095Y-71811961D01*
X167738095Y-71811961D02*
X167642857Y-71907200D01*
X167642857Y-71907200D02*
X167500000Y-71954819D01*
X167500000Y-71954819D02*
X167261905Y-71954819D01*
X168214286Y-71050057D02*
X168261905Y-71002438D01*
X168261905Y-71002438D02*
X168357143Y-70954819D01*
X168357143Y-70954819D02*
X168595238Y-70954819D01*
X168595238Y-70954819D02*
X168690476Y-71002438D01*
X168690476Y-71002438D02*
X168738095Y-71050057D01*
X168738095Y-71050057D02*
X168785714Y-71145295D01*
X168785714Y-71145295D02*
X168785714Y-71240533D01*
X168785714Y-71240533D02*
X168738095Y-71383390D01*
X168738095Y-71383390D02*
X168166667Y-71954819D01*
X168166667Y-71954819D02*
X168785714Y-71954819D01*
X187643333Y-124084819D02*
X187310000Y-123608628D01*
X187071905Y-124084819D02*
X187071905Y-123084819D01*
X187071905Y-123084819D02*
X187452857Y-123084819D01*
X187452857Y-123084819D02*
X187548095Y-123132438D01*
X187548095Y-123132438D02*
X187595714Y-123180057D01*
X187595714Y-123180057D02*
X187643333Y-123275295D01*
X187643333Y-123275295D02*
X187643333Y-123418152D01*
X187643333Y-123418152D02*
X187595714Y-123513390D01*
X187595714Y-123513390D02*
X187548095Y-123561009D01*
X187548095Y-123561009D02*
X187452857Y-123608628D01*
X187452857Y-123608628D02*
X187071905Y-123608628D01*
X188214762Y-123513390D02*
X188119524Y-123465771D01*
X188119524Y-123465771D02*
X188071905Y-123418152D01*
X188071905Y-123418152D02*
X188024286Y-123322914D01*
X188024286Y-123322914D02*
X188024286Y-123275295D01*
X188024286Y-123275295D02*
X188071905Y-123180057D01*
X188071905Y-123180057D02*
X188119524Y-123132438D01*
X188119524Y-123132438D02*
X188214762Y-123084819D01*
X188214762Y-123084819D02*
X188405238Y-123084819D01*
X188405238Y-123084819D02*
X188500476Y-123132438D01*
X188500476Y-123132438D02*
X188548095Y-123180057D01*
X188548095Y-123180057D02*
X188595714Y-123275295D01*
X188595714Y-123275295D02*
X188595714Y-123322914D01*
X188595714Y-123322914D02*
X188548095Y-123418152D01*
X188548095Y-123418152D02*
X188500476Y-123465771D01*
X188500476Y-123465771D02*
X188405238Y-123513390D01*
X188405238Y-123513390D02*
X188214762Y-123513390D01*
X188214762Y-123513390D02*
X188119524Y-123561009D01*
X188119524Y-123561009D02*
X188071905Y-123608628D01*
X188071905Y-123608628D02*
X188024286Y-123703866D01*
X188024286Y-123703866D02*
X188024286Y-123894342D01*
X188024286Y-123894342D02*
X188071905Y-123989580D01*
X188071905Y-123989580D02*
X188119524Y-124037200D01*
X188119524Y-124037200D02*
X188214762Y-124084819D01*
X188214762Y-124084819D02*
X188405238Y-124084819D01*
X188405238Y-124084819D02*
X188500476Y-124037200D01*
X188500476Y-124037200D02*
X188548095Y-123989580D01*
X188548095Y-123989580D02*
X188595714Y-123894342D01*
X188595714Y-123894342D02*
X188595714Y-123703866D01*
X188595714Y-123703866D02*
X188548095Y-123608628D01*
X188548095Y-123608628D02*
X188500476Y-123561009D01*
X188500476Y-123561009D02*
X188405238Y-123513390D01*
X167261905Y-64454819D02*
X167261905Y-63454819D01*
X167261905Y-63454819D02*
X167500000Y-63454819D01*
X167500000Y-63454819D02*
X167642857Y-63502438D01*
X167642857Y-63502438D02*
X167738095Y-63597676D01*
X167738095Y-63597676D02*
X167785714Y-63692914D01*
X167785714Y-63692914D02*
X167833333Y-63883390D01*
X167833333Y-63883390D02*
X167833333Y-64026247D01*
X167833333Y-64026247D02*
X167785714Y-64216723D01*
X167785714Y-64216723D02*
X167738095Y-64311961D01*
X167738095Y-64311961D02*
X167642857Y-64407200D01*
X167642857Y-64407200D02*
X167500000Y-64454819D01*
X167500000Y-64454819D02*
X167261905Y-64454819D01*
X168785714Y-64454819D02*
X168214286Y-64454819D01*
X168500000Y-64454819D02*
X168500000Y-63454819D01*
X168500000Y-63454819D02*
X168404762Y-63597676D01*
X168404762Y-63597676D02*
X168309524Y-63692914D01*
X168309524Y-63692914D02*
X168214286Y-63740533D01*
X172416666Y-98234819D02*
X172416666Y-98949104D01*
X172416666Y-98949104D02*
X172369047Y-99091961D01*
X172369047Y-99091961D02*
X172273809Y-99187200D01*
X172273809Y-99187200D02*
X172130952Y-99234819D01*
X172130952Y-99234819D02*
X172035714Y-99234819D01*
X173321428Y-98568152D02*
X173321428Y-99234819D01*
X173083333Y-98187200D02*
X172845238Y-98901485D01*
X172845238Y-98901485D02*
X173464285Y-98901485D01*
X187643333Y-118584819D02*
X187310000Y-118108628D01*
X187071905Y-118584819D02*
X187071905Y-117584819D01*
X187071905Y-117584819D02*
X187452857Y-117584819D01*
X187452857Y-117584819D02*
X187548095Y-117632438D01*
X187548095Y-117632438D02*
X187595714Y-117680057D01*
X187595714Y-117680057D02*
X187643333Y-117775295D01*
X187643333Y-117775295D02*
X187643333Y-117918152D01*
X187643333Y-117918152D02*
X187595714Y-118013390D01*
X187595714Y-118013390D02*
X187548095Y-118061009D01*
X187548095Y-118061009D02*
X187452857Y-118108628D01*
X187452857Y-118108628D02*
X187071905Y-118108628D01*
X187976667Y-117584819D02*
X188643333Y-117584819D01*
X188643333Y-117584819D02*
X188214762Y-118584819D01*
X167261905Y-86954819D02*
X167261905Y-85954819D01*
X167261905Y-85954819D02*
X167500000Y-85954819D01*
X167500000Y-85954819D02*
X167642857Y-86002438D01*
X167642857Y-86002438D02*
X167738095Y-86097676D01*
X167738095Y-86097676D02*
X167785714Y-86192914D01*
X167785714Y-86192914D02*
X167833333Y-86383390D01*
X167833333Y-86383390D02*
X167833333Y-86526247D01*
X167833333Y-86526247D02*
X167785714Y-86716723D01*
X167785714Y-86716723D02*
X167738095Y-86811961D01*
X167738095Y-86811961D02*
X167642857Y-86907200D01*
X167642857Y-86907200D02*
X167500000Y-86954819D01*
X167500000Y-86954819D02*
X167261905Y-86954819D01*
X168690476Y-86288152D02*
X168690476Y-86954819D01*
X168452381Y-85907200D02*
X168214286Y-86621485D01*
X168214286Y-86621485D02*
X168833333Y-86621485D01*
X187643333Y-106584819D02*
X187310000Y-106108628D01*
X187071905Y-106584819D02*
X187071905Y-105584819D01*
X187071905Y-105584819D02*
X187452857Y-105584819D01*
X187452857Y-105584819D02*
X187548095Y-105632438D01*
X187548095Y-105632438D02*
X187595714Y-105680057D01*
X187595714Y-105680057D02*
X187643333Y-105775295D01*
X187643333Y-105775295D02*
X187643333Y-105918152D01*
X187643333Y-105918152D02*
X187595714Y-106013390D01*
X187595714Y-106013390D02*
X187548095Y-106061009D01*
X187548095Y-106061009D02*
X187452857Y-106108628D01*
X187452857Y-106108628D02*
X187071905Y-106108628D01*
X188548095Y-105584819D02*
X188071905Y-105584819D01*
X188071905Y-105584819D02*
X188024286Y-106061009D01*
X188024286Y-106061009D02*
X188071905Y-106013390D01*
X188071905Y-106013390D02*
X188167143Y-105965771D01*
X188167143Y-105965771D02*
X188405238Y-105965771D01*
X188405238Y-105965771D02*
X188500476Y-106013390D01*
X188500476Y-106013390D02*
X188548095Y-106061009D01*
X188548095Y-106061009D02*
X188595714Y-106156247D01*
X188595714Y-106156247D02*
X188595714Y-106394342D01*
X188595714Y-106394342D02*
X188548095Y-106489580D01*
X188548095Y-106489580D02*
X188500476Y-106537200D01*
X188500476Y-106537200D02*
X188405238Y-106584819D01*
X188405238Y-106584819D02*
X188167143Y-106584819D01*
X188167143Y-106584819D02*
X188071905Y-106537200D01*
X188071905Y-106537200D02*
X188024286Y-106489580D01*
X125666666Y-64124819D02*
X125666666Y-64839104D01*
X125666666Y-64839104D02*
X125619047Y-64981961D01*
X125619047Y-64981961D02*
X125523809Y-65077200D01*
X125523809Y-65077200D02*
X125380952Y-65124819D01*
X125380952Y-65124819D02*
X125285714Y-65124819D01*
X126190476Y-65124819D02*
X126380952Y-65124819D01*
X126380952Y-65124819D02*
X126476190Y-65077200D01*
X126476190Y-65077200D02*
X126523809Y-65029580D01*
X126523809Y-65029580D02*
X126619047Y-64886723D01*
X126619047Y-64886723D02*
X126666666Y-64696247D01*
X126666666Y-64696247D02*
X126666666Y-64315295D01*
X126666666Y-64315295D02*
X126619047Y-64220057D01*
X126619047Y-64220057D02*
X126571428Y-64172438D01*
X126571428Y-64172438D02*
X126476190Y-64124819D01*
X126476190Y-64124819D02*
X126285714Y-64124819D01*
X126285714Y-64124819D02*
X126190476Y-64172438D01*
X126190476Y-64172438D02*
X126142857Y-64220057D01*
X126142857Y-64220057D02*
X126095238Y-64315295D01*
X126095238Y-64315295D02*
X126095238Y-64553390D01*
X126095238Y-64553390D02*
X126142857Y-64648628D01*
X126142857Y-64648628D02*
X126190476Y-64696247D01*
X126190476Y-64696247D02*
X126285714Y-64743866D01*
X126285714Y-64743866D02*
X126476190Y-64743866D01*
X126476190Y-64743866D02*
X126571428Y-64696247D01*
X126571428Y-64696247D02*
X126619047Y-64648628D01*
X126619047Y-64648628D02*
X126666666Y-64553390D01*
X128666666Y-119124819D02*
X128666666Y-119839104D01*
X128666666Y-119839104D02*
X128619047Y-119981961D01*
X128619047Y-119981961D02*
X128523809Y-120077200D01*
X128523809Y-120077200D02*
X128380952Y-120124819D01*
X128380952Y-120124819D02*
X128285714Y-120124819D01*
X129285714Y-119553390D02*
X129190476Y-119505771D01*
X129190476Y-119505771D02*
X129142857Y-119458152D01*
X129142857Y-119458152D02*
X129095238Y-119362914D01*
X129095238Y-119362914D02*
X129095238Y-119315295D01*
X129095238Y-119315295D02*
X129142857Y-119220057D01*
X129142857Y-119220057D02*
X129190476Y-119172438D01*
X129190476Y-119172438D02*
X129285714Y-119124819D01*
X129285714Y-119124819D02*
X129476190Y-119124819D01*
X129476190Y-119124819D02*
X129571428Y-119172438D01*
X129571428Y-119172438D02*
X129619047Y-119220057D01*
X129619047Y-119220057D02*
X129666666Y-119315295D01*
X129666666Y-119315295D02*
X129666666Y-119362914D01*
X129666666Y-119362914D02*
X129619047Y-119458152D01*
X129619047Y-119458152D02*
X129571428Y-119505771D01*
X129571428Y-119505771D02*
X129476190Y-119553390D01*
X129476190Y-119553390D02*
X129285714Y-119553390D01*
X129285714Y-119553390D02*
X129190476Y-119601009D01*
X129190476Y-119601009D02*
X129142857Y-119648628D01*
X129142857Y-119648628D02*
X129095238Y-119743866D01*
X129095238Y-119743866D02*
X129095238Y-119934342D01*
X129095238Y-119934342D02*
X129142857Y-120029580D01*
X129142857Y-120029580D02*
X129190476Y-120077200D01*
X129190476Y-120077200D02*
X129285714Y-120124819D01*
X129285714Y-120124819D02*
X129476190Y-120124819D01*
X129476190Y-120124819D02*
X129571428Y-120077200D01*
X129571428Y-120077200D02*
X129619047Y-120029580D01*
X129619047Y-120029580D02*
X129666666Y-119934342D01*
X129666666Y-119934342D02*
X129666666Y-119743866D01*
X129666666Y-119743866D02*
X129619047Y-119648628D01*
X129619047Y-119648628D02*
X129571428Y-119601009D01*
X129571428Y-119601009D02*
X129476190Y-119553390D01*
X118666666Y-106124819D02*
X118666666Y-106839104D01*
X118666666Y-106839104D02*
X118619047Y-106981961D01*
X118619047Y-106981961D02*
X118523809Y-107077200D01*
X118523809Y-107077200D02*
X118380952Y-107124819D01*
X118380952Y-107124819D02*
X118285714Y-107124819D01*
X119619047Y-106124819D02*
X119142857Y-106124819D01*
X119142857Y-106124819D02*
X119095238Y-106601009D01*
X119095238Y-106601009D02*
X119142857Y-106553390D01*
X119142857Y-106553390D02*
X119238095Y-106505771D01*
X119238095Y-106505771D02*
X119476190Y-106505771D01*
X119476190Y-106505771D02*
X119571428Y-106553390D01*
X119571428Y-106553390D02*
X119619047Y-106601009D01*
X119619047Y-106601009D02*
X119666666Y-106696247D01*
X119666666Y-106696247D02*
X119666666Y-106934342D01*
X119666666Y-106934342D02*
X119619047Y-107029580D01*
X119619047Y-107029580D02*
X119571428Y-107077200D01*
X119571428Y-107077200D02*
X119476190Y-107124819D01*
X119476190Y-107124819D02*
X119238095Y-107124819D01*
X119238095Y-107124819D02*
X119142857Y-107077200D01*
X119142857Y-107077200D02*
X119095238Y-107029580D01*
X128166666Y-106124819D02*
X128166666Y-106839104D01*
X128166666Y-106839104D02*
X128119047Y-106981961D01*
X128119047Y-106981961D02*
X128023809Y-107077200D01*
X128023809Y-107077200D02*
X127880952Y-107124819D01*
X127880952Y-107124819D02*
X127785714Y-107124819D01*
X129071428Y-106124819D02*
X128880952Y-106124819D01*
X128880952Y-106124819D02*
X128785714Y-106172438D01*
X128785714Y-106172438D02*
X128738095Y-106220057D01*
X128738095Y-106220057D02*
X128642857Y-106362914D01*
X128642857Y-106362914D02*
X128595238Y-106553390D01*
X128595238Y-106553390D02*
X128595238Y-106934342D01*
X128595238Y-106934342D02*
X128642857Y-107029580D01*
X128642857Y-107029580D02*
X128690476Y-107077200D01*
X128690476Y-107077200D02*
X128785714Y-107124819D01*
X128785714Y-107124819D02*
X128976190Y-107124819D01*
X128976190Y-107124819D02*
X129071428Y-107077200D01*
X129071428Y-107077200D02*
X129119047Y-107029580D01*
X129119047Y-107029580D02*
X129166666Y-106934342D01*
X129166666Y-106934342D02*
X129166666Y-106696247D01*
X129166666Y-106696247D02*
X129119047Y-106601009D01*
X129119047Y-106601009D02*
X129071428Y-106553390D01*
X129071428Y-106553390D02*
X128976190Y-106505771D01*
X128976190Y-106505771D02*
X128785714Y-106505771D01*
X128785714Y-106505771D02*
X128690476Y-106553390D01*
X128690476Y-106553390D02*
X128642857Y-106601009D01*
X128642857Y-106601009D02*
X128595238Y-106696247D01*
D12*
%TO.C,G\u002A\u002A\u002A*%
G36*
X157000050Y-71999999D02*
G01*
X157000050Y-73743386D01*
X151000000Y-73743386D01*
X144999950Y-73743386D01*
X144999950Y-73074455D01*
X145585320Y-73074455D01*
X145592392Y-73092491D01*
X145610516Y-73122545D01*
X145625574Y-73144111D01*
X145650559Y-73175890D01*
X145669770Y-73190970D01*
X145691465Y-73193886D01*
X145711471Y-73191297D01*
X145742570Y-73188246D01*
X145791916Y-73185760D01*
X145852308Y-73184121D01*
X145906779Y-73183606D01*
X146056444Y-73183466D01*
X146056440Y-73182766D01*
X146195860Y-73182766D01*
X146377339Y-73186297D01*
X146444242Y-73187141D01*
X146503172Y-73187028D01*
X146548885Y-73186033D01*
X146576136Y-73184229D01*
X146580190Y-73183466D01*
X146599563Y-73169978D01*
X146625494Y-73142537D01*
X146640780Y-73122932D01*
X146676581Y-73068637D01*
X146713470Y-73004682D01*
X146747029Y-72939459D01*
X146772843Y-72881356D01*
X146782939Y-72852863D01*
X146790991Y-72819366D01*
X146788075Y-72795343D01*
X146771680Y-72768331D01*
X146763804Y-72757841D01*
X146747069Y-72728650D01*
X147267319Y-72728650D01*
X147267400Y-72849586D01*
X147267650Y-72956988D01*
X147268062Y-73048779D01*
X147268631Y-73122881D01*
X147269348Y-73177217D01*
X147270209Y-73209710D01*
X147270931Y-73218461D01*
X147279976Y-73224390D01*
X147303628Y-73228778D01*
X147344400Y-73231790D01*
X147404804Y-73233585D01*
X147487354Y-73234327D01*
X147517828Y-73234368D01*
X147603064Y-73234121D01*
X147666201Y-73233200D01*
X147710590Y-73231332D01*
X147739579Y-73228248D01*
X147756518Y-73223675D01*
X147764757Y-73217343D01*
X147766374Y-73214239D01*
X147768635Y-73196035D01*
X147770634Y-73156369D01*
X147772270Y-73099230D01*
X147773440Y-73028605D01*
X147774040Y-72948483D01*
X147774098Y-72914131D01*
X147774571Y-72833113D01*
X147775896Y-72761675D01*
X147777932Y-72703376D01*
X147780537Y-72661775D01*
X147783570Y-72640430D01*
X147785067Y-72638393D01*
X147796275Y-72649254D01*
X147820512Y-72676724D01*
X147854970Y-72717488D01*
X147896838Y-72768232D01*
X147934591Y-72814793D01*
X147989923Y-72883508D01*
X148049039Y-72956862D01*
X148106196Y-73027733D01*
X148155654Y-73089000D01*
X148173378Y-73110934D01*
X148273611Y-73234918D01*
X148510603Y-73231462D01*
X148747595Y-73228005D01*
X148751143Y-73119839D01*
X148754692Y-73011673D01*
X148525180Y-72728695D01*
X148997992Y-72728695D01*
X148998083Y-72849657D01*
X148998344Y-72957088D01*
X148998769Y-73048912D01*
X148999351Y-73123049D01*
X149000084Y-73177422D01*
X149000962Y-73209953D01*
X149001696Y-73218731D01*
X149009728Y-73224479D01*
X149030568Y-73228562D01*
X149066926Y-73231113D01*
X149121512Y-73232266D01*
X149197034Y-73232155D01*
X149259498Y-73231457D01*
X149511122Y-73228005D01*
X149511997Y-73134377D01*
X149747885Y-73134377D01*
X149748899Y-73177670D01*
X149752017Y-73203547D01*
X149759897Y-73234940D01*
X149991822Y-73231473D01*
X150223747Y-73228005D01*
X150389178Y-73021349D01*
X150443095Y-72953831D01*
X150508518Y-72871640D01*
X150581217Y-72780107D01*
X150656963Y-72684562D01*
X150731524Y-72590334D01*
X150790030Y-72516249D01*
X150849542Y-72441171D01*
X150904159Y-72372969D01*
X150951860Y-72314110D01*
X150990626Y-72267061D01*
X151018437Y-72234290D01*
X151033270Y-72218264D01*
X151034995Y-72217068D01*
X151037075Y-72229181D01*
X151039000Y-72264055D01*
X151040717Y-72319005D01*
X151042177Y-72391342D01*
X151043330Y-72478379D01*
X151044124Y-72577427D01*
X151044510Y-72685798D01*
X151044539Y-72725619D01*
X151044539Y-73234906D01*
X151295866Y-73231456D01*
X151547194Y-73228005D01*
X151547194Y-72318136D01*
X151547194Y-71547538D01*
X151784589Y-71547538D01*
X151785343Y-71629719D01*
X151785478Y-71638271D01*
X151788978Y-71853657D01*
X152005310Y-71860019D01*
X152221643Y-71866382D01*
X152224820Y-72534468D01*
X152225542Y-72662823D01*
X152226436Y-72783683D01*
X152227471Y-72894621D01*
X152228612Y-72993209D01*
X152229827Y-73077018D01*
X152231084Y-73143622D01*
X152232350Y-73190592D01*
X152233591Y-73215501D01*
X152234069Y-73218731D01*
X152242053Y-73224478D01*
X152262839Y-73228560D01*
X152299138Y-73231112D01*
X152353658Y-73232266D01*
X152429108Y-73232157D01*
X152491763Y-73231457D01*
X152743386Y-73228005D01*
X152749749Y-72547194D01*
X152751460Y-72364162D01*
X153199814Y-72364162D01*
X153207248Y-72433695D01*
X153241374Y-72582489D01*
X153297661Y-72721027D01*
X153374206Y-72847338D01*
X153469106Y-72959450D01*
X153580457Y-73055391D01*
X153706356Y-73133190D01*
X153844900Y-73190875D01*
X153968381Y-73222111D01*
X154041665Y-73229668D01*
X154129852Y-73229812D01*
X154174981Y-73226645D01*
X154887625Y-73226645D01*
X154899976Y-73228037D01*
X154935536Y-73229240D01*
X154992063Y-73230240D01*
X155067315Y-73231023D01*
X155159049Y-73231574D01*
X155265025Y-73231880D01*
X155383000Y-73231926D01*
X155510733Y-73231697D01*
X155622520Y-73231290D01*
X156357414Y-73228005D01*
X156360728Y-72664904D01*
X156364042Y-72101803D01*
X155832622Y-72101805D01*
X155301202Y-72101808D01*
X155301202Y-72324283D01*
X155301202Y-72546758D01*
X155606613Y-72550157D01*
X155912024Y-72553556D01*
X155915698Y-72664702D01*
X155919371Y-72775847D01*
X155567272Y-72779231D01*
X155215172Y-72782615D01*
X155152354Y-72894013D01*
X155096198Y-72981170D01*
X155026599Y-73069828D01*
X154988580Y-73112063D01*
X154948737Y-73154803D01*
X154916308Y-73190820D01*
X154894788Y-73216152D01*
X154887625Y-73226645D01*
X154174981Y-73226645D01*
X154223716Y-73223225D01*
X154314029Y-73210590D01*
X154391565Y-73192587D01*
X154398922Y-73190306D01*
X154542878Y-73131430D01*
X154673071Y-73052042D01*
X154787707Y-72953900D01*
X154884992Y-72838764D01*
X154963131Y-72708392D01*
X155012486Y-72588908D01*
X155025958Y-72546382D01*
X155035247Y-72508500D01*
X155041111Y-72468808D01*
X155044307Y-72420854D01*
X155045594Y-72358186D01*
X155045764Y-72305410D01*
X155045312Y-72229593D01*
X155043466Y-72172708D01*
X155039450Y-72128244D01*
X155032488Y-72089688D01*
X155021803Y-72050530D01*
X155011630Y-72019087D01*
X154971562Y-71921246D01*
X154918092Y-71822125D01*
X154856727Y-71730980D01*
X154800834Y-71664989D01*
X154746235Y-71615651D01*
X154676762Y-71562899D01*
X154600735Y-71512306D01*
X154526479Y-71469444D01*
X154467685Y-71441943D01*
X154352871Y-71407517D01*
X154900350Y-71407517D01*
X154908502Y-71418762D01*
X154929986Y-71443169D01*
X154960350Y-71475701D01*
X154963900Y-71479413D01*
X155061485Y-71591400D01*
X155137679Y-71702214D01*
X155168606Y-71758216D01*
X155190403Y-71799493D01*
X155208535Y-71831123D01*
X155219388Y-71846836D01*
X155219939Y-71847294D01*
X155234192Y-71848617D01*
X155271281Y-71849846D01*
X155328591Y-71850954D01*
X155403509Y-71851910D01*
X155493419Y-71852687D01*
X155595706Y-71853254D01*
X155707757Y-71853583D01*
X155793270Y-71853657D01*
X156357414Y-71853657D01*
X156360889Y-71627780D01*
X156364364Y-71401903D01*
X155632357Y-71401903D01*
X155498500Y-71401998D01*
X155372544Y-71402271D01*
X155256736Y-71402704D01*
X155153324Y-71403281D01*
X155064552Y-71403984D01*
X154992668Y-71404797D01*
X154939917Y-71405701D01*
X154908546Y-71406679D01*
X154900350Y-71407517D01*
X154352871Y-71407517D01*
X154329272Y-71400441D01*
X154184035Y-71380671D01*
X154038501Y-71383202D01*
X153948676Y-71396694D01*
X153810194Y-71435008D01*
X153685745Y-71490898D01*
X153570972Y-71566844D01*
X153461520Y-71665329D01*
X153442765Y-71684878D01*
X153349594Y-71802041D01*
X153277806Y-71931435D01*
X153228308Y-72070175D01*
X153202009Y-72215379D01*
X153199814Y-72364162D01*
X152751460Y-72364162D01*
X152756112Y-71866382D01*
X152908817Y-71862794D01*
X153061523Y-71859205D01*
X153106062Y-71774092D01*
X153136934Y-71723285D01*
X153179655Y-71667669D01*
X153237412Y-71603341D01*
X153286503Y-71553028D01*
X153333168Y-71505399D01*
X153371905Y-71464039D01*
X153399787Y-71432219D01*
X153413890Y-71413212D01*
X153414818Y-71409490D01*
X153400718Y-71407793D01*
X153363803Y-71406329D01*
X153306711Y-71405092D01*
X153232077Y-71404078D01*
X153142536Y-71403280D01*
X153040725Y-71402695D01*
X152929279Y-71402317D01*
X152810834Y-71402142D01*
X152688026Y-71402163D01*
X152563492Y-71402377D01*
X152439866Y-71402777D01*
X152319785Y-71403359D01*
X152205885Y-71404118D01*
X152100801Y-71405049D01*
X152007169Y-71406147D01*
X151927625Y-71407406D01*
X151864806Y-71408823D01*
X151821346Y-71410390D01*
X151799882Y-71412105D01*
X151798204Y-71412589D01*
X151791980Y-71423040D01*
X151787745Y-71447089D01*
X151785336Y-71487625D01*
X151784589Y-71547538D01*
X151547194Y-71547538D01*
X151547194Y-71408266D01*
X151305024Y-71404819D01*
X151212986Y-71403997D01*
X151143655Y-71404584D01*
X151094317Y-71406714D01*
X151062260Y-71410518D01*
X151044773Y-71416127D01*
X151042699Y-71417545D01*
X151029265Y-71431770D01*
X151002493Y-71462923D01*
X150964871Y-71508002D01*
X150918893Y-71564004D01*
X150867047Y-71627929D01*
X150833920Y-71669138D01*
X150776668Y-71740397D01*
X150721006Y-71809321D01*
X150670132Y-71871973D01*
X150627248Y-71924417D01*
X150595554Y-71962718D01*
X150585576Y-71974548D01*
X150544284Y-72024069D01*
X150499504Y-72079463D01*
X150470242Y-72116735D01*
X150440011Y-72155333D01*
X150399008Y-72206800D01*
X150352655Y-72264368D01*
X150307132Y-72320342D01*
X150268981Y-72367023D01*
X150218358Y-72429031D01*
X150158860Y-72501955D01*
X150094083Y-72581386D01*
X150027626Y-72662913D01*
X149977276Y-72724707D01*
X149754917Y-72997661D01*
X149749528Y-73084908D01*
X149747885Y-73134377D01*
X149511997Y-73134377D01*
X149517485Y-72547194D01*
X149523847Y-71866382D01*
X149956357Y-71863669D01*
X150073009Y-71862587D01*
X150174567Y-71860937D01*
X150259089Y-71858783D01*
X150324638Y-71856192D01*
X150369276Y-71853230D01*
X150391062Y-71849964D01*
X150392920Y-71848793D01*
X150401898Y-71835671D01*
X150424614Y-71806078D01*
X150458577Y-71763154D01*
X150501300Y-71710037D01*
X150550293Y-71649864D01*
X150561876Y-71635736D01*
X150611442Y-71574476D01*
X150654610Y-71519443D01*
X150689030Y-71473772D01*
X150712353Y-71440600D01*
X150722229Y-71423064D01*
X150722346Y-71421553D01*
X150710093Y-71418574D01*
X150675205Y-71415984D01*
X150617310Y-71413779D01*
X150536035Y-71411952D01*
X150431007Y-71410499D01*
X150301855Y-71409413D01*
X150148205Y-71408688D01*
X149969686Y-71408319D01*
X149860009Y-71408266D01*
X149002104Y-71408266D01*
X148998811Y-72305410D01*
X148998350Y-72454493D01*
X148998079Y-72596281D01*
X148997992Y-72728695D01*
X148525180Y-72728695D01*
X148481182Y-72674448D01*
X148416540Y-72594261D01*
X148357319Y-72519864D01*
X148305380Y-72453667D01*
X148262584Y-72398081D01*
X148230790Y-72355514D01*
X148211859Y-72328376D01*
X148207218Y-72319543D01*
X148214659Y-72302345D01*
X148234955Y-72271258D01*
X148264411Y-72231731D01*
X148279934Y-72212316D01*
X148309026Y-72176625D01*
X148350816Y-72125231D01*
X148401992Y-72062216D01*
X148459241Y-71991660D01*
X148519249Y-71917643D01*
X148553996Y-71874756D01*
X148754887Y-71626742D01*
X148751241Y-71517504D01*
X148747595Y-71408266D01*
X148531262Y-71404637D01*
X148457829Y-71403804D01*
X148391827Y-71403802D01*
X148338093Y-71404572D01*
X148301460Y-71406057D01*
X148288337Y-71407549D01*
X148273494Y-71418940D01*
X148244904Y-71447988D01*
X148204606Y-71492385D01*
X148154635Y-71549824D01*
X148097031Y-71617997D01*
X148033831Y-71694595D01*
X148021102Y-71710226D01*
X147780461Y-72006362D01*
X147773506Y-71707314D01*
X147771440Y-71622889D01*
X147769398Y-71547406D01*
X147767492Y-71484432D01*
X147765835Y-71437535D01*
X147764539Y-71410282D01*
X147763962Y-71404810D01*
X147751055Y-71403910D01*
X147716639Y-71403450D01*
X147664650Y-71403429D01*
X147599025Y-71403849D01*
X147523701Y-71404708D01*
X147516407Y-71404810D01*
X147271442Y-71408266D01*
X147268149Y-72305410D01*
X147267687Y-72454485D01*
X147267412Y-72596257D01*
X147267319Y-72728650D01*
X146747069Y-72728650D01*
X146718691Y-72679152D01*
X146696280Y-72594373D01*
X146696233Y-72507904D01*
X146718213Y-72424147D01*
X146761881Y-72347504D01*
X146798458Y-72306662D01*
X146825314Y-72278906D01*
X146835507Y-72259782D01*
X146832263Y-72242036D01*
X146829572Y-72236672D01*
X146823896Y-72212593D01*
X146819446Y-72164575D01*
X146816304Y-72094104D01*
X146814553Y-72002666D01*
X146814250Y-71958198D01*
X146813638Y-71869641D01*
X146812377Y-71803304D01*
X146810222Y-71755960D01*
X146806930Y-71724380D01*
X146802254Y-71705338D01*
X146795950Y-71695605D01*
X146794238Y-71694340D01*
X146776584Y-71690959D01*
X146738096Y-71688061D01*
X146683388Y-71685683D01*
X146617075Y-71683864D01*
X146543769Y-71682641D01*
X146468084Y-71682053D01*
X146394635Y-71682137D01*
X146328035Y-71682931D01*
X146272897Y-71684473D01*
X146233835Y-71686801D01*
X146216271Y-71689587D01*
X146207388Y-71696940D01*
X146201493Y-71713731D01*
X146198028Y-71744220D01*
X146196438Y-71792667D01*
X146196142Y-71843777D01*
X146196457Y-71906676D01*
X146197829Y-71948169D01*
X146200903Y-71972299D01*
X146206321Y-71983107D01*
X146214726Y-71984635D01*
X146218411Y-71983750D01*
X146239028Y-71976992D01*
X146277697Y-71963694D01*
X146328513Y-71945904D01*
X146375043Y-71929423D01*
X146509405Y-71881589D01*
X146613645Y-71924209D01*
X146717885Y-71966829D01*
X146717676Y-72088399D01*
X146716607Y-72149798D01*
X146712840Y-72193052D01*
X146705158Y-72225422D01*
X146692345Y-72254170D01*
X146688850Y-72260495D01*
X146642357Y-72318193D01*
X146580096Y-72360549D01*
X146507785Y-72385860D01*
X146431144Y-72392424D01*
X146355891Y-72378541D01*
X146328948Y-72367598D01*
X146299961Y-72346257D01*
X146288185Y-72313275D01*
X146287505Y-72307292D01*
X146285520Y-72267376D01*
X146292070Y-72245888D01*
X146311507Y-72240193D01*
X146348185Y-72247660D01*
X146373552Y-72255258D01*
X146440293Y-72270723D01*
X146493116Y-72269457D01*
X146537971Y-72250636D01*
X146565634Y-72228633D01*
X146585552Y-72207942D01*
X146596878Y-72187284D01*
X146602007Y-72158682D01*
X146603336Y-72114163D01*
X146603356Y-72103060D01*
X146602128Y-72058982D01*
X146598890Y-72027118D01*
X146594316Y-72013768D01*
X146593812Y-72013694D01*
X146578969Y-72017652D01*
X146544230Y-72027945D01*
X146493968Y-72043246D01*
X146432557Y-72062229D01*
X146393386Y-72074456D01*
X146202505Y-72134249D01*
X146199182Y-72658507D01*
X146195860Y-73182766D01*
X146056440Y-73182766D01*
X146053122Y-72658963D01*
X146049799Y-72134459D01*
X145863054Y-72078226D01*
X145796285Y-72059060D01*
X145737221Y-72043865D01*
X145690605Y-72033731D01*
X145661183Y-72029748D01*
X145654523Y-72030354D01*
X145641232Y-72047792D01*
X145636260Y-72081539D01*
X145638795Y-72124149D01*
X145648025Y-72168177D01*
X145663137Y-72206174D01*
X145675652Y-72224029D01*
X145724395Y-72259257D01*
X145783612Y-72271866D01*
X145854061Y-72261976D01*
X145873939Y-72255861D01*
X145914276Y-72243681D01*
X145944792Y-72237115D01*
X145957211Y-72237183D01*
X145960983Y-72251532D01*
X145964091Y-72286233D01*
X145966225Y-72336192D01*
X145967080Y-72396313D01*
X145967084Y-72400771D01*
X145967084Y-72558257D01*
X145886496Y-72664073D01*
X145846753Y-72716259D01*
X145797750Y-72780603D01*
X145745649Y-72849014D01*
X145696612Y-72913403D01*
X145695615Y-72914712D01*
X145656104Y-72967587D01*
X145622860Y-73013973D01*
X145598671Y-73049831D01*
X145586327Y-73071120D01*
X145585320Y-73074455D01*
X144999950Y-73074455D01*
X144999950Y-72259871D01*
X145407943Y-72259871D01*
X145419759Y-72289188D01*
X145439399Y-72308015D01*
X145470578Y-72342562D01*
X145501160Y-72393041D01*
X145526416Y-72450272D01*
X145541616Y-72505074D01*
X145541946Y-72507072D01*
X145542488Y-72574952D01*
X145526305Y-72648329D01*
X145496195Y-72716375D01*
X145482394Y-72737605D01*
X145445521Y-72788507D01*
X145471796Y-72858732D01*
X145487285Y-72896226D01*
X145500604Y-72921705D01*
X145507462Y-72928957D01*
X145517953Y-72919297D01*
X145540687Y-72892661D01*
X145572816Y-72852566D01*
X145611490Y-72802530D01*
X145633751Y-72773070D01*
X145684019Y-72706269D01*
X145737996Y-72634921D01*
X145789687Y-72566934D01*
X145833092Y-72510212D01*
X145838717Y-72502905D01*
X145873304Y-72456877D01*
X145900634Y-72418295D01*
X145917766Y-72391468D01*
X145922027Y-72380925D01*
X145907986Y-72378899D01*
X145877175Y-72382065D01*
X145852830Y-72386424D01*
X145774274Y-72391295D01*
X145698461Y-72375489D01*
X145631019Y-72341343D01*
X145577580Y-72291194D01*
X145560095Y-72264915D01*
X145547663Y-72239254D01*
X145540136Y-72211822D01*
X145536645Y-72175946D01*
X145536318Y-72124950D01*
X145537148Y-72088928D01*
X145540781Y-71960237D01*
X145633897Y-71922853D01*
X145679849Y-71905149D01*
X145717470Y-71892016D01*
X145739906Y-71885813D01*
X145742064Y-71885612D01*
X145759432Y-71889869D01*
X145795215Y-71901320D01*
X145844016Y-71918168D01*
X145894760Y-71936514D01*
X145950296Y-71956633D01*
X145997284Y-71972981D01*
X146030478Y-71983776D01*
X146044284Y-71987274D01*
X146049085Y-71975344D01*
X146052923Y-71942724D01*
X146055406Y-71894169D01*
X146056162Y-71842293D01*
X146055611Y-71777812D01*
X146053580Y-71734486D01*
X146049507Y-71708037D01*
X146042827Y-71694184D01*
X146036033Y-71689587D01*
X146017822Y-71687323D01*
X145978155Y-71685321D01*
X145921027Y-71683685D01*
X145850433Y-71682516D01*
X145770367Y-71681919D01*
X145736670Y-71681863D01*
X145457436Y-71681863D01*
X145444389Y-71716179D01*
X145440022Y-71740789D01*
X145436610Y-71786639D01*
X145434323Y-71849530D01*
X145433331Y-71925265D01*
X145433505Y-71984432D01*
X145433651Y-72082336D01*
X145432027Y-72155435D01*
X145428604Y-72204316D01*
X145423354Y-72229564D01*
X145421416Y-72232621D01*
X145407943Y-72259871D01*
X144999950Y-72259871D01*
X144999950Y-71999999D01*
X144999950Y-71536628D01*
X145501885Y-71536628D01*
X145503274Y-71542965D01*
X145517103Y-71546115D01*
X145551374Y-71548842D01*
X145601470Y-71551102D01*
X145662775Y-71552856D01*
X145730671Y-71554060D01*
X145800542Y-71554673D01*
X145867772Y-71554654D01*
X145927742Y-71553960D01*
X145975838Y-71552550D01*
X146007441Y-71550382D01*
X146017986Y-71547624D01*
X146011006Y-71533052D01*
X145993140Y-71505472D01*
X145969000Y-71471181D01*
X145943197Y-71436476D01*
X145920343Y-71407656D01*
X145905050Y-71391018D01*
X145901963Y-71389178D01*
X145893110Y-71400122D01*
X145884553Y-71426518D01*
X145884400Y-71427208D01*
X145875477Y-71456067D01*
X145866002Y-71471447D01*
X145855375Y-71464077D01*
X145834399Y-71439316D01*
X145806333Y-71401277D01*
X145781084Y-71364230D01*
X145749050Y-71317647D01*
X145720841Y-71280179D01*
X145699985Y-71256304D01*
X145691157Y-71250001D01*
X145673146Y-71259746D01*
X145647068Y-71287005D01*
X145616150Y-71326747D01*
X145583619Y-71373942D01*
X145552701Y-71423558D01*
X145526622Y-71470565D01*
X145508608Y-71509932D01*
X145501885Y-71536628D01*
X144999950Y-71536628D01*
X144999950Y-71162839D01*
X145801653Y-71162839D01*
X145806213Y-71186927D01*
X145817474Y-71219959D01*
X145831811Y-71253387D01*
X145845595Y-71278662D01*
X145854489Y-71287374D01*
X145866612Y-71276988D01*
X145882741Y-71251203D01*
X145886931Y-71242835D01*
X145902148Y-71214428D01*
X145913570Y-71199181D01*
X145915358Y-71198353D01*
X145923844Y-71208955D01*
X145940789Y-71237407D01*
X145963337Y-71278763D01*
X145978009Y-71307006D01*
X146011063Y-71365411D01*
X146049873Y-71424627D01*
X146087412Y-71474132D01*
X146096996Y-71485104D01*
X146160519Y-71554608D01*
X146459148Y-71554608D01*
X146757777Y-71554608D01*
X146749362Y-71525976D01*
X146739321Y-71501776D01*
X146720120Y-71462904D01*
X146695418Y-71416676D01*
X146688153Y-71403656D01*
X146617074Y-71300316D01*
X146527993Y-71211872D01*
X146418753Y-71136372D01*
X146394954Y-71123690D01*
X147264499Y-71123690D01*
X147271895Y-71122840D01*
X149415103Y-71122840D01*
X149545828Y-71119210D01*
X149676553Y-71115580D01*
X149680521Y-71081185D01*
X149681563Y-71062997D01*
X149677813Y-71056053D01*
X149911974Y-71056053D01*
X149951126Y-71088998D01*
X149977403Y-71107719D01*
X150005602Y-71117736D01*
X150045018Y-71121565D01*
X150072997Y-71121943D01*
X150119833Y-71120749D01*
X150150201Y-71115293D01*
X150173041Y-71102760D01*
X150193692Y-71083966D01*
X150219225Y-71052989D01*
X150228211Y-71022477D01*
X150227708Y-70998069D01*
X150223083Y-70966593D01*
X150211949Y-70953109D01*
X150187765Y-70950155D01*
X150185696Y-70950150D01*
X150157615Y-70954256D01*
X150144724Y-70971883D01*
X150141080Y-70988046D01*
X150124023Y-71022732D01*
X150091750Y-71041546D01*
X150050976Y-71041536D01*
X150033378Y-71035414D01*
X150019205Y-71027975D01*
X150009930Y-71017832D01*
X150004515Y-71000054D01*
X150001921Y-70969710D01*
X150001112Y-70921867D01*
X150001052Y-70881794D01*
X150001555Y-70817033D01*
X150004428Y-70773507D01*
X150011715Y-70747001D01*
X150025459Y-70733301D01*
X150047704Y-70728191D01*
X150075900Y-70727454D01*
X150115702Y-70736484D01*
X150137291Y-70762880D01*
X150141032Y-70787264D01*
X150144873Y-70807160D01*
X150161264Y-70815282D01*
X150185571Y-70816532D01*
X150215484Y-70814423D01*
X150227754Y-70803604D01*
X150230110Y-70777724D01*
X150223148Y-70723801D01*
X150217495Y-70714155D01*
X150423362Y-70714155D01*
X150434721Y-70724854D01*
X150464206Y-70729505D01*
X150467945Y-70729822D01*
X150516432Y-70733817D01*
X150519988Y-70911120D01*
X150522324Y-70990021D01*
X150526258Y-71046882D01*
X150532656Y-71085102D01*
X150542385Y-71108084D01*
X150556310Y-71119226D01*
X150573697Y-71121943D01*
X150600831Y-71113018D01*
X150609941Y-71105183D01*
X150615732Y-71085878D01*
X150620801Y-71045226D01*
X150624779Y-70987328D01*
X150627298Y-70916285D01*
X150627406Y-70911120D01*
X150630962Y-70733817D01*
X150675501Y-70727454D01*
X150708165Y-70718403D01*
X150722375Y-70700679D01*
X150724047Y-70692909D01*
X150722885Y-70675178D01*
X150711233Y-70663064D01*
X150685707Y-70655815D01*
X150642926Y-70652676D01*
X150579508Y-70652895D01*
X150548246Y-70653733D01*
X150492224Y-70655693D01*
X150456720Y-70658377D01*
X150436816Y-70663277D01*
X150427590Y-70671890D01*
X150424123Y-70685709D01*
X150423406Y-70691645D01*
X150423362Y-70714155D01*
X150217495Y-70714155D01*
X150200981Y-70685975D01*
X150161685Y-70663067D01*
X150103338Y-70653894D01*
X150032673Y-70656431D01*
X149988861Y-70661828D01*
X149957150Y-70671158D01*
X149935595Y-70688136D01*
X149922247Y-70716477D01*
X149915162Y-70759898D01*
X149912391Y-70822113D01*
X149911974Y-70886801D01*
X149911974Y-71056053D01*
X149677813Y-71056053D01*
X149675847Y-71052412D01*
X149658013Y-71046953D01*
X149622699Y-71044147D01*
X149597806Y-71043008D01*
X149511122Y-71039228D01*
X149511122Y-70981963D01*
X149511122Y-70924699D01*
X149584293Y-70920882D01*
X149625446Y-70918057D01*
X149647282Y-70912825D01*
X149655916Y-70901783D01*
X149657061Y-70886801D01*
X149657464Y-70881528D01*
X149657465Y-70880160D01*
X149656118Y-70859333D01*
X149648003Y-70847896D01*
X149627004Y-70842446D01*
X149587005Y-70839579D01*
X149584293Y-70839437D01*
X149511122Y-70835621D01*
X149511122Y-70784719D01*
X149511122Y-70733817D01*
X149597806Y-70730036D01*
X149643478Y-70727625D01*
X149669082Y-70723755D01*
X149679978Y-70715954D01*
X149681529Y-70701745D01*
X149680521Y-70691860D01*
X149676553Y-70657464D01*
X149549298Y-70657464D01*
X149422044Y-70657464D01*
X149418574Y-70890152D01*
X149415103Y-71122840D01*
X147271895Y-71122840D01*
X147299784Y-71119635D01*
X147319517Y-71115604D01*
X147330860Y-71105061D01*
X147337077Y-71081706D01*
X147341431Y-71039240D01*
X147341432Y-71039228D01*
X147347795Y-70962875D01*
X147426012Y-70956512D01*
X147484675Y-70948595D01*
X147523149Y-70933211D01*
X147545461Y-70905808D01*
X147550101Y-70885763D01*
X147786823Y-70885763D01*
X147787326Y-70958068D01*
X147788719Y-71021393D01*
X147790830Y-71071405D01*
X147793487Y-71103770D01*
X147795891Y-71114044D01*
X147814217Y-71119617D01*
X147837249Y-71119346D01*
X147854814Y-71115360D01*
X147865253Y-71104541D01*
X147871245Y-71080894D01*
X147875470Y-71038422D01*
X147875901Y-71032865D01*
X147880105Y-70988244D01*
X147885672Y-70963371D01*
X147895052Y-70952567D01*
X147910693Y-70950152D01*
X147911566Y-70950150D01*
X147929860Y-70954911D01*
X147947452Y-70972187D01*
X147968136Y-71006464D01*
X147981556Y-71032865D01*
X148004163Y-71076483D01*
X148021731Y-71101942D01*
X148039221Y-71114489D01*
X148061597Y-71119366D01*
X148063602Y-71119568D01*
X148090350Y-71119212D01*
X148102884Y-71109330D01*
X148101459Y-71086523D01*
X148086332Y-71047386D01*
X148071400Y-71015905D01*
X148037841Y-70947479D01*
X148066451Y-70908781D01*
X148077459Y-70886922D01*
X148334018Y-70886922D01*
X148335329Y-70969590D01*
X148340828Y-71030251D01*
X148352863Y-71072278D01*
X148373783Y-71099047D01*
X148405936Y-71113935D01*
X148451669Y-71120317D01*
X148497246Y-71121556D01*
X148543542Y-71120491D01*
X148573563Y-71114840D01*
X148596423Y-71101755D01*
X148614956Y-71084746D01*
X148630966Y-71067859D01*
X148641563Y-71051722D01*
X148647864Y-71030853D01*
X148650985Y-70999768D01*
X148651857Y-70961231D01*
X148857949Y-70961231D01*
X148860750Y-71022405D01*
X148885607Y-71072677D01*
X148903996Y-71092460D01*
X148925015Y-71109506D01*
X148946757Y-71118497D01*
X148977382Y-71121243D01*
X149025047Y-71119553D01*
X149025908Y-71119505D01*
X149074605Y-71115531D01*
X149105790Y-71108582D01*
X149127401Y-71095952D01*
X149143618Y-71079373D01*
X149155316Y-71064525D01*
X149163537Y-71048661D01*
X149168893Y-71027234D01*
X149171994Y-70995694D01*
X149173453Y-70949490D01*
X149173879Y-70884074D01*
X149173897Y-70853999D01*
X149173897Y-70663827D01*
X149130320Y-70663827D01*
X149086743Y-70663827D01*
X149082600Y-70842472D01*
X149080324Y-70918578D01*
X149076775Y-70972880D01*
X149070734Y-71009025D01*
X149060983Y-71030659D01*
X149046301Y-71041430D01*
X149025471Y-71044983D01*
X149014829Y-71045201D01*
X148980627Y-71038325D01*
X148959748Y-71014965D01*
X148948555Y-70971019D01*
X148948471Y-70970397D01*
X148942598Y-70936949D01*
X148932939Y-70922293D01*
X148913318Y-70919884D01*
X148901716Y-70920843D01*
X148872860Y-70927781D01*
X148860532Y-70946150D01*
X148857949Y-70961231D01*
X148651857Y-70961231D01*
X148652043Y-70952988D01*
X148652154Y-70902126D01*
X148650979Y-70839700D01*
X148647798Y-70783054D01*
X148643126Y-70739186D01*
X148638603Y-70717829D01*
X148618361Y-70683611D01*
X148584325Y-70662848D01*
X148533329Y-70654461D01*
X148462209Y-70657370D01*
X148461566Y-70657435D01*
X148415112Y-70663091D01*
X148381566Y-70671809D01*
X148358831Y-70687366D01*
X148344807Y-70713535D01*
X148337396Y-70754094D01*
X148334499Y-70812818D01*
X148334018Y-70886922D01*
X148077459Y-70886922D01*
X148090464Y-70861097D01*
X148100123Y-70807495D01*
X148096396Y-70754280D01*
X148080252Y-70707758D01*
X148052658Y-70674234D01*
X148028607Y-70662281D01*
X147996564Y-70657113D01*
X147950755Y-70653800D01*
X147899845Y-70652477D01*
X147852500Y-70653279D01*
X147817385Y-70656341D01*
X147806952Y-70658826D01*
X147799531Y-70664772D01*
X147794151Y-70678390D01*
X147790502Y-70703190D01*
X147788272Y-70742682D01*
X147787150Y-70800373D01*
X147786824Y-70879775D01*
X147786823Y-70885763D01*
X147550101Y-70885763D01*
X147555641Y-70861833D01*
X147557765Y-70807619D01*
X147556778Y-70757112D01*
X147552544Y-70724464D01*
X147543159Y-70702120D01*
X147526714Y-70682523D01*
X147526033Y-70681840D01*
X147508882Y-70666553D01*
X147490686Y-70657443D01*
X147464926Y-70653233D01*
X147425080Y-70652646D01*
X147382872Y-70653786D01*
X147271442Y-70657464D01*
X147267971Y-70890577D01*
X147264499Y-71123690D01*
X146394954Y-71123690D01*
X146355602Y-71102720D01*
X146303214Y-71076202D01*
X146258223Y-71051839D01*
X146226373Y-71032829D01*
X146214795Y-71024249D01*
X146197757Y-70997343D01*
X146202650Y-70976440D01*
X146224202Y-70966941D01*
X146241524Y-70959051D01*
X146257911Y-70937809D01*
X146276343Y-70898694D01*
X146287019Y-70871645D01*
X146309097Y-70818401D01*
X146333436Y-70766842D01*
X146354560Y-70728484D01*
X146387343Y-70676552D01*
X146125251Y-70676552D01*
X146047072Y-70676991D01*
X145978658Y-70678217D01*
X145923672Y-70680094D01*
X145885774Y-70682487D01*
X145868625Y-70685259D01*
X145868046Y-70686096D01*
X145883089Y-70716508D01*
X145903622Y-70759325D01*
X145926673Y-70808187D01*
X145949273Y-70856730D01*
X145968450Y-70898593D01*
X145981233Y-70927413D01*
X145984480Y-70935451D01*
X146002750Y-70958035D01*
X146018050Y-70965567D01*
X146039462Y-70982651D01*
X146043436Y-71000942D01*
X146039624Y-71016025D01*
X146025642Y-71031390D01*
X145997675Y-71049802D01*
X145951905Y-71074023D01*
X145922545Y-71088499D01*
X145872805Y-71114083D01*
X145832998Y-71137189D01*
X145807918Y-71154870D01*
X145801653Y-71162839D01*
X144999950Y-71162839D01*
X144999950Y-70256613D01*
X151000000Y-70256613D01*
X157000050Y-70256613D01*
X157000050Y-71999999D01*
G37*
G36*
X154181067Y-71914368D02*
G01*
X154216818Y-71924034D01*
X154260020Y-71942496D01*
X154266431Y-71945493D01*
X154356816Y-71999487D01*
X154425411Y-72066550D01*
X154472551Y-72147178D01*
X154498575Y-72241866D01*
X154503770Y-72294583D01*
X154504991Y-72350087D01*
X154500994Y-72391689D01*
X154489826Y-72430729D01*
X154473613Y-72469526D01*
X154422857Y-72553042D01*
X154352876Y-72624505D01*
X154276405Y-72674651D01*
X154218990Y-72694651D01*
X154147983Y-72706120D01*
X154074026Y-72708299D01*
X154007759Y-72700434D01*
X153988243Y-72695133D01*
X153894933Y-72652207D01*
X153818309Y-72591534D01*
X153760186Y-72515762D01*
X153722383Y-72427544D01*
X153706713Y-72329531D01*
X153707236Y-72284989D01*
X153724957Y-72184560D01*
X153763691Y-72097011D01*
X153821496Y-72024239D01*
X153896426Y-71968136D01*
X153986538Y-71930598D01*
X154088274Y-71913613D01*
X154141856Y-71911545D01*
X154181067Y-71914368D01*
G37*
G36*
X146315282Y-73016624D02*
G01*
X146317103Y-73018093D01*
X146339491Y-73027987D01*
X146368312Y-73020179D01*
X146393150Y-73013254D01*
X146399109Y-73021252D01*
X146385915Y-73039505D01*
X146378963Y-73054865D01*
X146385915Y-73061889D01*
X146399992Y-73076816D01*
X146390692Y-73087957D01*
X146359984Y-73093838D01*
X146342485Y-73094388D01*
X146308331Y-73092071D01*
X146287846Y-73086208D01*
X146285220Y-73082723D01*
X146295274Y-73068497D01*
X146301127Y-73065704D01*
X146310016Y-73057035D01*
X146299474Y-73039080D01*
X146299313Y-73038885D01*
X146288157Y-73016997D01*
X146295055Y-73007734D01*
X146315282Y-73016624D01*
G37*
G36*
X146307444Y-72901060D02*
G01*
X146312721Y-72922594D01*
X146325512Y-72942908D01*
X146357502Y-72951934D01*
X146358496Y-72952033D01*
X146390255Y-72958423D01*
X146398819Y-72967130D01*
X146385891Y-72975193D01*
X146353173Y-72979653D01*
X146342485Y-72979859D01*
X146285220Y-72979859D01*
X146285220Y-72926412D01*
X146288858Y-72893964D01*
X146297434Y-72885351D01*
X146307444Y-72901060D01*
G37*
G36*
X146376636Y-72816956D02*
G01*
X146397121Y-72823351D01*
X146399749Y-72827154D01*
X146389442Y-72838443D01*
X146380661Y-72839879D01*
X146363886Y-72850097D01*
X146361573Y-72859367D01*
X146371868Y-72880600D01*
X146380661Y-72886179D01*
X146396390Y-72898321D01*
X146399121Y-72911640D01*
X146389923Y-72916232D01*
X146375112Y-72908768D01*
X146348567Y-72889803D01*
X146332659Y-72877129D01*
X146304873Y-72851975D01*
X146287798Y-72832181D01*
X146285220Y-72826227D01*
X146296596Y-72819190D01*
X146325377Y-72814969D01*
X146342485Y-72814428D01*
X146376636Y-72816956D01*
G37*
G36*
X146304840Y-72713741D02*
G01*
X146308492Y-72717015D01*
X146339193Y-72733367D01*
X146365756Y-72738075D01*
X146390694Y-72742176D01*
X146399749Y-72750801D01*
X146388709Y-72759804D01*
X146362324Y-72763526D01*
X146332936Y-72767449D01*
X146317034Y-72776252D01*
X146302228Y-72789318D01*
X146290824Y-72779656D01*
X146285372Y-72749975D01*
X146285220Y-72742466D01*
X146286169Y-72712832D01*
X146291479Y-72704603D01*
X146304840Y-72713741D01*
G37*
G36*
X146371710Y-72590770D02*
G01*
X146384479Y-72600641D01*
X146398437Y-72629291D01*
X146395527Y-72661609D01*
X146377046Y-72685628D01*
X146375135Y-72686726D01*
X146345101Y-72698530D01*
X146322748Y-72692052D01*
X146304261Y-72674396D01*
X146290099Y-72644786D01*
X146290888Y-72640580D01*
X146326542Y-72640580D01*
X146331307Y-72662927D01*
X146345746Y-72674385D01*
X146347086Y-72674448D01*
X146361057Y-72664227D01*
X146366991Y-72653232D01*
X146368205Y-72629259D01*
X146356357Y-72614711D01*
X146338490Y-72616744D01*
X146334432Y-72620146D01*
X146326542Y-72640580D01*
X146290888Y-72640580D01*
X146295420Y-72616416D01*
X146314567Y-72594489D01*
X146341883Y-72584206D01*
X146371710Y-72590770D01*
G37*
G36*
X146371117Y-72498628D02*
G01*
X146398373Y-72507742D01*
X146409338Y-72531814D01*
X146410138Y-72537650D01*
X146407498Y-72563670D01*
X146396170Y-72572798D01*
X146382549Y-72561580D01*
X146379208Y-72554360D01*
X146363640Y-72541927D01*
X146354157Y-72542996D01*
X146339481Y-72539859D01*
X146336122Y-72522259D01*
X146340750Y-72502529D01*
X146359522Y-72497685D01*
X146371117Y-72498628D01*
G37*
G36*
X146307382Y-72507160D02*
G01*
X146310671Y-72527354D01*
X146306407Y-72551626D01*
X146297945Y-72559919D01*
X146287504Y-72549295D01*
X146285220Y-72535219D01*
X146291063Y-72510858D01*
X146297945Y-72502655D01*
X146307382Y-72507160D01*
G37*
G36*
X147438819Y-70733168D02*
G01*
X147456968Y-70739989D01*
X147465608Y-70753291D01*
X147467378Y-70780241D01*
X147466157Y-70807394D01*
X147462324Y-70873797D01*
X147408125Y-70877716D01*
X147368436Y-70877088D01*
X147348995Y-70867220D01*
X147346876Y-70863265D01*
X147343360Y-70839688D01*
X147343075Y-70802871D01*
X147343811Y-70789356D01*
X147348443Y-70753715D01*
X147358327Y-70736222D01*
X147377592Y-70729599D01*
X147377722Y-70729581D01*
X147414757Y-70729385D01*
X147438819Y-70733168D01*
G37*
G36*
X147972637Y-70733005D02*
G01*
X147991765Y-70741216D01*
X148000719Y-70758248D01*
X148003133Y-70791840D01*
X148003156Y-70798002D01*
X148001167Y-70834886D01*
X147992556Y-70854939D01*
X147973353Y-70866642D01*
X147970514Y-70867749D01*
X147926026Y-70879045D01*
X147894226Y-70875652D01*
X147881062Y-70862527D01*
X147877725Y-70839457D01*
X147877531Y-70802969D01*
X147878280Y-70789356D01*
X147882912Y-70753715D01*
X147892796Y-70736222D01*
X147912061Y-70729599D01*
X147912191Y-70729581D01*
X147949470Y-70729363D01*
X147972637Y-70733005D01*
G37*
G36*
X148523246Y-70730871D02*
G01*
X148543212Y-70743538D01*
X148554735Y-70769082D01*
X148559100Y-70811128D01*
X148557597Y-70873301D01*
X148555775Y-70902669D01*
X148551927Y-70955679D01*
X148548422Y-70998017D01*
X148545749Y-71024059D01*
X148544726Y-71029551D01*
X148524940Y-71037838D01*
X148493018Y-71040298D01*
X148461629Y-71036815D01*
X148446361Y-71030474D01*
X148435003Y-71014473D01*
X148426521Y-70984218D01*
X148420000Y-70935483D01*
X148416384Y-70891957D01*
X148413319Y-70824019D01*
X148416699Y-70777356D01*
X148428277Y-70748231D01*
X148449806Y-70732904D01*
X148483042Y-70727637D01*
X148493547Y-70727454D01*
X148523246Y-70730871D01*
G37*
D10*
%TO.C,J7*%
X117170000Y-120170000D02*
X118500000Y-120170000D01*
X117170000Y-121500000D02*
X117170000Y-120170000D01*
X117170000Y-122770000D02*
X117170000Y-127910000D01*
X117170000Y-122770000D02*
X119830000Y-122770000D01*
X117170000Y-127910000D02*
X119830000Y-127910000D01*
X119830000Y-122770000D02*
X119830000Y-127910000D01*
%TO.C,J1*%
X112380000Y-65447500D02*
X112380000Y-73287500D01*
X112380000Y-65447500D02*
X119620000Y-65447500D01*
X112380000Y-71667500D02*
X119620000Y-71667500D01*
X112380000Y-72767500D02*
X119620000Y-72767500D01*
X112380000Y-73287500D02*
X113950000Y-73287500D01*
X114550000Y-73287500D02*
X119620000Y-73287500D01*
X116454000Y-69736500D02*
X116339000Y-69850500D01*
X116681000Y-69963500D02*
X116566000Y-70077500D01*
X118934000Y-67256500D02*
X118819000Y-67371500D01*
X119161000Y-67483500D02*
X119046000Y-67598500D01*
X119620000Y-65447500D02*
X119620000Y-73287500D01*
X112570000Y-69465500D02*
G75*
G02*
X112570192Y-67869095I1679997J798000D01*
G01*
X113452000Y-66987500D02*
G75*
G02*
X115048405Y-66987692I798000J-1680000D01*
G01*
X115048000Y-70347500D02*
G75*
G02*
X113451595Y-70347308I-798000J1679997D01*
G01*
X115930000Y-68283500D02*
G75*
G02*
X115929865Y-69050861I1820000J-384000D01*
G01*
X114690000Y-73897500D02*
X113810000Y-73897500D01*
X114250000Y-73287500D01*
X114690000Y-73897500D01*
G36*
X114690000Y-73897500D02*
G01*
X113810000Y-73897500D01*
X114250000Y-73287500D01*
X114690000Y-73897500D01*
G37*
%TO.C,J2*%
X120070000Y-94150000D02*
X120070000Y-101830000D01*
X120070000Y-94150000D02*
X122730000Y-94150000D01*
X120070000Y-101830000D02*
X122730000Y-101830000D01*
X121400000Y-91550000D02*
X122730000Y-91550000D01*
X122730000Y-91550000D02*
X122730000Y-92880000D01*
X122730000Y-94150000D02*
X122730000Y-101830000D01*
%TO.C,SW3*%
X169190000Y-127240000D02*
X178010000Y-127240000D01*
X169190000Y-127550000D02*
X169190000Y-127240000D01*
X169190000Y-131760000D02*
X169190000Y-131450000D01*
X171100000Y-126540000D02*
X171600000Y-127040000D01*
X171600000Y-127040000D02*
X172100000Y-126540000D01*
X172100000Y-126540000D02*
X171100000Y-126540000D01*
X178010000Y-127240000D02*
X178010000Y-127550000D01*
X178010000Y-131760000D02*
X169190000Y-131760000D01*
X178010000Y-131760000D02*
X178010000Y-131450000D01*
D13*
%TO.C,U1*%
X137551000Y-69550000D02*
X162951000Y-69550000D01*
X137551000Y-132290000D02*
X137551000Y-69550000D01*
X162951000Y-69550000D02*
X162951000Y-132290000D01*
X162951000Y-132290000D02*
X137551000Y-132290000D01*
D14*
X136635000Y-70948000D02*
G75*
G02*
X136435000Y-70948000I-100000J0D01*
G01*
X136435000Y-70948000D02*
G75*
G02*
X136635000Y-70948000I100000J0D01*
G01*
D10*
%TO.C,R4*%
X179920000Y-89630000D02*
X186460000Y-89630000D01*
X179920000Y-89960000D02*
X179920000Y-89630000D01*
X179920000Y-92040000D02*
X179920000Y-92370000D01*
X179920000Y-92370000D02*
X186460000Y-92370000D01*
X186460000Y-89630000D02*
X186460000Y-89960000D01*
X186460000Y-92370000D02*
X186460000Y-92040000D01*
%TO.C,SW1*%
X169190000Y-114350000D02*
X178010000Y-114350000D01*
X169190000Y-114660000D02*
X169190000Y-114350000D01*
X169190000Y-118870000D02*
X169190000Y-118560000D01*
X171100000Y-113650000D02*
X171600000Y-114150000D01*
X171600000Y-114150000D02*
X172100000Y-113650000D01*
X172100000Y-113650000D02*
X171100000Y-113650000D01*
X178010000Y-114350000D02*
X178010000Y-114660000D01*
X178010000Y-118870000D02*
X169190000Y-118870000D01*
X178010000Y-118870000D02*
X178010000Y-118560000D01*
%TO.C,J3*%
X124670000Y-94150000D02*
X124670000Y-101830000D01*
X124670000Y-94150000D02*
X127330000Y-94150000D01*
X124670000Y-101830000D02*
X127330000Y-101830000D01*
X126000000Y-91550000D02*
X127330000Y-91550000D01*
X127330000Y-91550000D02*
X127330000Y-92880000D01*
X127330000Y-94150000D02*
X127330000Y-101830000D01*
%TO.C,R3*%
X179920000Y-81630000D02*
X186460000Y-81630000D01*
X179920000Y-81960000D02*
X179920000Y-81630000D01*
X179920000Y-84040000D02*
X179920000Y-84370000D01*
X179920000Y-84370000D02*
X186460000Y-84370000D01*
X186460000Y-81630000D02*
X186460000Y-81960000D01*
X186460000Y-84370000D02*
X186460000Y-84040000D01*
%TO.C,R1*%
X179920000Y-66630000D02*
X186460000Y-66630000D01*
X179920000Y-66960000D02*
X179920000Y-66630000D01*
X179920000Y-69040000D02*
X179920000Y-69370000D01*
X179920000Y-69370000D02*
X186460000Y-69370000D01*
X186460000Y-66630000D02*
X186460000Y-66960000D01*
X186460000Y-69370000D02*
X186460000Y-69040000D01*
%TO.C,R6*%
X184540000Y-112630000D02*
X191080000Y-112630000D01*
X184540000Y-112960000D02*
X184540000Y-112630000D01*
X184540000Y-115040000D02*
X184540000Y-115370000D01*
X184540000Y-115370000D02*
X191080000Y-115370000D01*
X191080000Y-112630000D02*
X191080000Y-112960000D01*
X191080000Y-115370000D02*
X191080000Y-115040000D01*
%TO.C,SW2*%
X169190000Y-120795000D02*
X178010000Y-120795000D01*
X169190000Y-121105000D02*
X169190000Y-120795000D01*
X169190000Y-125315000D02*
X169190000Y-125005000D01*
X171100000Y-120095000D02*
X171600000Y-120595000D01*
X171600000Y-120595000D02*
X172100000Y-120095000D01*
X172100000Y-120095000D02*
X171100000Y-120095000D01*
X178010000Y-120795000D02*
X178010000Y-121105000D01*
X178010000Y-125315000D02*
X169190000Y-125315000D01*
X178010000Y-125315000D02*
X178010000Y-125005000D01*
%TO.C,R2*%
X179920000Y-74130000D02*
X186460000Y-74130000D01*
X179920000Y-74460000D02*
X179920000Y-74130000D01*
X179920000Y-76540000D02*
X179920000Y-76870000D01*
X179920000Y-76870000D02*
X186460000Y-76870000D01*
X186460000Y-74130000D02*
X186460000Y-74460000D01*
X186460000Y-76870000D02*
X186460000Y-76540000D01*
%TO.C,D3*%
X169670000Y-81485000D02*
X169670000Y-84575000D01*
X169670000Y-81485170D02*
G75*
G02*
X175220000Y-83029952I2560000J-1544830D01*
G01*
X175220000Y-83030048D02*
G75*
G02*
X169670000Y-84574830I-2990000J48D01*
G01*
X174730000Y-83030000D02*
G75*
G02*
X169730000Y-83030000I-2500000J0D01*
G01*
X169730000Y-83030000D02*
G75*
G02*
X174730000Y-83030000I2500000J0D01*
G01*
%TO.C,D2*%
X169670000Y-74015000D02*
X169670000Y-77105000D01*
X169670000Y-74015170D02*
G75*
G02*
X175220000Y-75559952I2560000J-1544830D01*
G01*
X175220000Y-75560048D02*
G75*
G02*
X169670000Y-77104830I-2990000J48D01*
G01*
X174730000Y-75560000D02*
G75*
G02*
X169730000Y-75560000I-2500000J0D01*
G01*
X169730000Y-75560000D02*
G75*
G02*
X174730000Y-75560000I2500000J0D01*
G01*
%TO.C,R8*%
X184540000Y-124630000D02*
X191080000Y-124630000D01*
X184540000Y-124960000D02*
X184540000Y-124630000D01*
X184540000Y-127040000D02*
X184540000Y-127370000D01*
X184540000Y-127370000D02*
X191080000Y-127370000D01*
X191080000Y-124630000D02*
X191080000Y-124960000D01*
X191080000Y-127370000D02*
X191080000Y-127040000D01*
%TO.C,D1*%
X169670000Y-66545000D02*
X169670000Y-69635000D01*
X169670000Y-66545170D02*
G75*
G02*
X175220000Y-68089952I2560000J-1544830D01*
G01*
X175220000Y-68090048D02*
G75*
G02*
X169670000Y-69634830I-2990000J48D01*
G01*
X174730000Y-68090000D02*
G75*
G02*
X169730000Y-68090000I-2500000J0D01*
G01*
X169730000Y-68090000D02*
G75*
G02*
X174730000Y-68090000I2500000J0D01*
G01*
%TO.C,J4*%
X169130000Y-99780000D02*
X169130000Y-107620000D01*
X169130000Y-99780000D02*
X176370000Y-99780000D01*
X169130000Y-106000000D02*
X176370000Y-106000000D01*
X169130000Y-107100000D02*
X176370000Y-107100000D01*
X169130000Y-107620000D02*
X170700000Y-107620000D01*
X171300000Y-107620000D02*
X176370000Y-107620000D01*
X173204000Y-104069000D02*
X173089000Y-104183000D01*
X173431000Y-104296000D02*
X173316000Y-104410000D01*
X175684000Y-101589000D02*
X175569000Y-101704000D01*
X175911000Y-101816000D02*
X175796000Y-101931000D01*
X176370000Y-99780000D02*
X176370000Y-107620000D01*
X169320000Y-103798000D02*
G75*
G02*
X169320192Y-102201595I1679997J798000D01*
G01*
X170202000Y-101320000D02*
G75*
G02*
X171798405Y-101320192I798000J-1680000D01*
G01*
X171798000Y-104680000D02*
G75*
G02*
X170201595Y-104679808I-798000J1679997D01*
G01*
X172680000Y-102616000D02*
G75*
G02*
X172679865Y-103383361I1820000J-384000D01*
G01*
X171440000Y-108230000D02*
X170560000Y-108230000D01*
X171000000Y-107620000D01*
X171440000Y-108230000D01*
G36*
X171440000Y-108230000D02*
G01*
X170560000Y-108230000D01*
X171000000Y-107620000D01*
X171440000Y-108230000D01*
G37*
%TO.C,R7*%
X184540000Y-119130000D02*
X191080000Y-119130000D01*
X184540000Y-119460000D02*
X184540000Y-119130000D01*
X184540000Y-121540000D02*
X184540000Y-121870000D01*
X184540000Y-121870000D02*
X191080000Y-121870000D01*
X191080000Y-119130000D02*
X191080000Y-119460000D01*
X191080000Y-121870000D02*
X191080000Y-121540000D01*
%TO.C,D4*%
X169670000Y-88955000D02*
X169670000Y-92045000D01*
X169670000Y-88955170D02*
G75*
G02*
X175220000Y-90499952I2560000J-1544830D01*
G01*
X175220000Y-90500048D02*
G75*
G02*
X169670000Y-92044830I-2990000J48D01*
G01*
X174730000Y-90500000D02*
G75*
G02*
X169730000Y-90500000I-2500000J0D01*
G01*
X169730000Y-90500000D02*
G75*
G02*
X174730000Y-90500000I2500000J0D01*
G01*
%TO.C,R5*%
X184540000Y-107130000D02*
X191080000Y-107130000D01*
X184540000Y-107460000D02*
X184540000Y-107130000D01*
X184540000Y-109540000D02*
X184540000Y-109870000D01*
X184540000Y-109870000D02*
X191080000Y-109870000D01*
X191080000Y-107130000D02*
X191080000Y-107460000D01*
X191080000Y-109870000D02*
X191080000Y-109540000D01*
%TO.C,J9*%
X124670000Y-65670000D02*
X126000000Y-65670000D01*
X124670000Y-67000000D02*
X124670000Y-65670000D01*
X124670000Y-68270000D02*
X124670000Y-86110000D01*
X124670000Y-68270000D02*
X127330000Y-68270000D01*
X124670000Y-86110000D02*
X127330000Y-86110000D01*
X127330000Y-68270000D02*
X127330000Y-86110000D01*
%TO.C,J8*%
X127670000Y-120670000D02*
X129000000Y-120670000D01*
X127670000Y-122000000D02*
X127670000Y-120670000D01*
X127670000Y-123270000D02*
X127670000Y-128410000D01*
X127670000Y-123270000D02*
X130330000Y-123270000D01*
X127670000Y-128410000D02*
X130330000Y-128410000D01*
X130330000Y-123270000D02*
X130330000Y-128410000D01*
%TO.C,J5*%
X117670000Y-107670000D02*
X119000000Y-107670000D01*
X117670000Y-109000000D02*
X117670000Y-107670000D01*
X117670000Y-110270000D02*
X117670000Y-115410000D01*
X117670000Y-110270000D02*
X120330000Y-110270000D01*
X117670000Y-115410000D02*
X120330000Y-115410000D01*
X120330000Y-110270000D02*
X120330000Y-115410000D01*
%TO.C,J6*%
X127170000Y-107670000D02*
X128500000Y-107670000D01*
X127170000Y-109000000D02*
X127170000Y-107670000D01*
X127170000Y-110270000D02*
X127170000Y-115410000D01*
X127170000Y-110270000D02*
X129830000Y-110270000D01*
X127170000Y-115410000D02*
X129830000Y-115410000D01*
X129830000Y-110270000D02*
X129830000Y-115410000D01*
%TD*%
M02*
