M48
; DRILL file {KiCad 9.0.0} date 2026-07-20T21:40:45+0530
; FORMAT={-:-/ absolute / metric / decimal}
; #@! TF.CreationDate,2026-07-20T21:40:45+05:30
; #@! TF.GenerationSoftware,Kicad,Pcbnew,9.0.0
; #@! TF.FileFunction,Plated,1,2,PTH
FMAT,2
METRIC
; #@! TA.AperFunction,Plated,PTH,ComponentDrill
T1C1.000
; #@! TA.AperFunction,Plated,PTH,ComponentDrill
T2C1.400
; #@! TA.AperFunction,Plated,PTH,ComponentDrill
T3C4.500
%
G90
G05
T1
X125.5Y-87.96
X125.5Y-90.5
X125.5Y-93.04
X125.5Y-95.58
X125.5Y-113.42
X125.5Y-115.96
X125.5Y-118.5
X125.5Y-121.04
X164.2Y-117.96
X164.2Y-120.5
X168.85Y-117.96
X168.85Y-120.5
X173.5Y-117.96
X173.5Y-120.5
T2
X139.7Y-91.5
X139.7Y-94.0
X139.7Y-118.0
X139.7Y-120.5
X140.1Y-59.25
X140.1Y-61.75
X143.2Y-91.5
X143.2Y-94.0
X143.2Y-118.0
X143.2Y-120.5
X143.6Y-59.25
X143.6Y-61.75
X149.0Y-91.5
X149.0Y-94.0
X149.0Y-118.0
X149.0Y-120.5
X149.4Y-59.25
X149.4Y-61.75
X152.5Y-91.5
X152.5Y-94.0
X152.5Y-118.0
X152.5Y-120.5
X152.9Y-59.25
X152.9Y-61.75
T3
X117.9Y-53.5
X117.9Y-67.5
X125.1Y-53.5
X125.1Y-67.5
X164.9Y-50.5
X164.9Y-60.75
X164.9Y-71.0
X165.0Y-83.0
X165.0Y-93.25
X165.0Y-103.5
X172.1Y-50.5
X172.1Y-60.75
X172.1Y-71.0
X172.2Y-83.0
X172.2Y-93.25
X172.2Y-103.5
M30
